<svg width="16" height="16" viewBox="0 0 16 16" fill="none" xmlns="http://www.w3.org/2000/svg">
<path id="Vector" opacity="0.1" d="M13.6235 13.3203L9.92488 8.22868L15.0165 4.53002C15.6573 4.06457 15.8013 3.1559 15.3358 2.51516C14.8704 1.87441 13.9617 1.73042 13.321 2.19587L8.22929 5.89455L4.53063 0.802898C4.06518 0.162152 3.15652 0.0181605 2.51578 0.483611C1.87503 0.949062 1.73104 1.85773 2.19649 2.49848L5.89516 7.5901L0.803516 11.2888C0.162769 11.7542 0.0187757 12.6629 0.484226 13.3037C0.949677 13.9444 1.85833 14.0884 2.49908 13.6229L7.59072 9.92426L11.2894 15.0159C11.7549 15.6567 12.6635 15.8007 13.3043 15.3352C13.9549 14.8713 14.0973 13.9725 13.6235 13.3203Z" fill="white"/>
</svg>
