<svg width="9" height="9" viewBox="0 0 9 9" fill="none" xmlns="http://www.w3.org/2000/svg">
<path id="Vector" opacity="0.1" d="M7.00923 6.8535L5.10577 4.23317L7.7261 2.32973C8.05584 2.09019 8.12995 1.62256 7.89041 1.29281C7.65088 0.963062 7.18325 0.88896 6.8535 1.1285L4.23317 3.03196L2.32972 0.411627C2.09018 0.0818782 1.62256 0.00777547 1.29281 0.247312C0.963063 0.486848 0.888959 0.954479 1.12849 1.28423L3.03195 3.90454L0.411627 5.808C0.0818784 6.04754 0.00777453 6.51517 0.247311 6.84492C0.486847 7.17467 0.95447 7.24877 1.28422 7.00924L3.90454 5.10577L5.808 7.7261C6.04754 8.05585 6.51516 8.12996 6.84491 7.89042C7.17974 7.65169 7.25304 7.18914 7.00923 6.8535Z" fill="white"/>
</svg>
