<svg width="327" height="195" viewBox="0 0 327 195" fill="none" xmlns="http://www.w3.org/2000/svg">
<rect width="327" height="195" rx="16" fill="#194BFB"/>
<mask id="mask0_1311_13981" style="mask-type:alpha" maskUnits="userSpaceOnUse" x="0" y="0" width="327" height="195">
<rect width="327" height="195" rx="16" fill="#194BFB"/>
</mask>
<g mask="url(#mask0_1311_13981)">
<path d="M148.542 98.0132C148.542 182.186 217.125 250.421 301.727 250.421C386.328 250.421 454.911 182.186 454.911 98.0132C454.911 13.8406 386.328 -54.3947 301.727 -54.3947C217.125 -54.3947 148.542 13.8406 148.542 98.0132ZM412.217 98.0132C412.217 158.726 362.749 207.943 301.727 207.943C240.705 207.943 191.236 158.726 191.236 98.0132C191.236 37.3004 240.705 -11.917 301.727 -11.917C362.749 -11.917 412.217 37.3004 412.217 98.0132Z" fill="url(#paint0_linear_1311_13981)" fill-opacity="0.9"/>
<path d="M245.508 97.5C245.508 131.509 273.219 159.079 307.401 159.079C341.583 159.079 369.294 131.509 369.294 97.5C369.294 63.4909 341.583 35.921 307.401 35.921C273.219 35.921 245.508 63.4909 245.508 97.5ZM343.721 97.5C343.721 117.457 327.46 133.636 307.401 133.636C287.342 133.636 271.081 117.457 271.081 97.5C271.081 77.5426 287.342 61.364 307.401 61.364C327.46 61.364 343.721 77.5426 343.721 97.5Z" fill="url(#paint1_linear_1311_13981)" fill-opacity="0.9"/>
</g>
<rect x="25.0073" y="26.9342" width="32.5095" height="24.5226" rx="3.75" fill="url(#paint2_linear_1311_13981)" stroke="#9F7E3B" stroke-width="0.5"/>
<path d="M25.2732 34.3816H34.1044C35.209 34.3816 36.1044 35.277 36.1044 36.3816V40.4112M36.1044 51.2132V46.4408M36.1044 46.4408V40.4112M36.1044 46.4408H25.2732M36.1044 40.4112H25.2732" stroke="black" stroke-opacity="0.76" stroke-width="0.5"/>
<path d="M57.251 34.3816H46.9355M46.9355 34.3816V40.4112M46.9355 34.3816V27.1974M46.9355 51.2132V46.4408M46.9355 46.4408V40.4112M46.9355 46.4408H57.251M46.9355 40.4112H57.251" stroke="black" stroke-opacity="0.76" stroke-width="0.5"/>
<path d="M249.957 38.6923C253.041 38.6923 254.956 36.6207 254.956 33.3077V33.2932C254.956 29.9874 253.034 27.9158 249.957 27.9158C246.887 27.9158 244.95 29.9874 244.95 33.2932V33.3077C244.95 36.6207 246.872 38.6923 249.957 38.6923ZM249.957 37.0755C248.071 37.0755 246.872 35.6246 246.872 33.3077V33.2932C246.872 30.9762 248.078 29.5326 249.957 29.5326C251.842 29.5326 253.041 30.9834 253.041 33.2932V33.3077C253.041 35.603 251.864 37.0755 249.957 37.0755Z" fill="white"/>
<path d="M258.369 38.5119H260.371L263.098 30.8607H261.197L259.407 36.8445H259.363L257.565 30.8607H255.628L258.369 38.5119Z" fill="white"/>
<path d="M267.066 38.6634C269.091 38.6634 270.231 37.4797 270.472 36.3031L270.494 36.2237H268.791L268.776 36.2743C268.601 36.7867 268.009 37.2631 267.103 37.2631C265.919 37.2631 265.173 36.4692 265.144 35.1266H270.567V34.5492C270.567 32.2394 269.193 30.7019 266.979 30.7019C264.764 30.7019 263.339 32.2899 263.339 34.7007V34.708C263.339 37.1404 264.742 38.6634 267.066 38.6634ZM267 32.1095C267.965 32.1095 268.667 32.7158 268.798 33.9284H265.166C265.312 32.7519 266.036 32.1095 267 32.1095Z" fill="white"/>
<path d="M271.744 38.5119H273.564V34.0728C273.564 32.9395 274.185 32.2971 275.215 32.2971C275.522 32.2971 275.8 32.3404 275.954 32.3982V30.7741C275.815 30.738 275.603 30.7019 275.376 30.7019C274.485 30.7019 273.841 31.2577 273.6 32.1816H273.564V30.8607H271.744V38.5119Z" fill="white"/>
<path d="M276.889 41.0382H278.709V37.2198H278.745C279.184 38.1149 280.068 38.6634 281.172 38.6634C283.116 38.6634 284.359 37.1477 284.359 34.6935V34.6863C284.359 32.2177 283.116 30.7019 281.15 30.7019C280.039 30.7019 279.191 31.2649 278.745 32.1816H278.709V30.8607H276.889V41.0382ZM280.609 37.1477C279.484 37.1477 278.694 36.1877 278.694 34.6935V34.6863C278.694 33.1849 279.484 32.2177 280.609 32.2177C281.771 32.2177 282.502 33.1561 282.502 34.6863V34.6935C282.502 36.2021 281.771 37.1477 280.609 37.1477Z" fill="white"/>
<path d="M287.816 38.6418C288.839 38.6418 289.701 38.1365 290.147 37.3353H290.191V38.5119H292.011V33.2499C292.011 31.7125 290.761 30.7019 288.824 30.7019C286.858 30.7019 285.667 31.7197 285.557 33.0767L285.55 33.1633H287.238L287.253 33.0983C287.37 32.5353 287.896 32.1383 288.758 32.1383C289.679 32.1383 290.191 32.6075 290.191 33.3798V33.9067L288.166 34.0295C286.288 34.1449 285.221 34.9606 285.221 36.3176V36.332C285.221 37.6962 286.266 38.6418 287.816 38.6418ZM287.033 36.2598V36.2526C287.033 35.6463 287.523 35.2637 288.422 35.206L290.191 35.0977V35.6752C290.191 36.5846 289.401 37.2704 288.356 37.2704C287.56 37.2704 287.033 36.8878 287.033 36.2598Z" fill="white"/>
<path d="M294.488 41.0526C296.104 41.0526 297.01 40.4535 297.602 38.7717L300.386 30.8607H298.472L296.652 36.9816H296.601L294.788 30.8607H292.8L295.585 38.5191L295.475 38.8295C295.241 39.4719 294.854 39.6668 294.159 39.6668C293.904 39.6668 293.692 39.6307 293.553 39.6018V40.9732C293.772 41.0093 294.137 41.0526 294.488 41.0526Z" fill="white"/>
<path d="M301.19 38.6274C301.782 38.6274 302.243 38.1654 302.243 37.5807C302.243 37.0033 301.782 36.5413 301.19 36.5413C300.598 36.5413 300.131 37.0033 300.131 37.5807C300.131 38.1654 300.598 38.6274 301.19 38.6274Z" fill="white"/>
<path d="M237.353 38.0968C236.154 39.1231 234.572 39.732 232.837 39.6841C229.233 39.5883 226.424 36.5436 226.424 33.0062V28.1962C226.424 27.8884 226.801 27.7378 227.017 27.9568L237.353 38.0968Z" fill="white"/>
<path d="M229.212 27.5737C230.404 26.5542 231.972 25.9521 233.694 26C237.269 26.0958 240.05 29.1131 240.05 32.6231V37.3852C240.05 37.6931 239.674 37.8437 239.458 37.6247L229.212 27.5737Z" fill="white"/>
<path d="M287.315 149.488C286.044 149.035 284.701 148.807 283.349 148.816C278.976 148.816 275.887 150.975 275.865 154.074C275.838 156.351 278.06 157.634 279.741 158.395C281.466 159.177 282.042 159.67 282.037 160.369C282.026 161.433 280.659 161.915 279.388 161.915C277.642 161.915 276.688 161.677 275.22 161.079L274.676 160.83L274.056 164.398C275.119 164.832 277.035 165.205 279.014 165.237C283.663 165.237 286.702 163.091 286.738 159.794C286.776 157.975 285.574 156.6 283.043 155.465C281.504 154.728 280.55 154.235 280.55 153.488C280.55 152.826 281.367 152.119 283.075 152.119C284.212 152.092 285.342 152.301 286.391 152.732L286.801 152.912L287.421 149.464L287.315 149.488ZM298.663 149.105H295.246C294.183 149.105 293.382 149.392 292.918 150.426L286.347 165.014H290.996L291.925 162.622L297.6 162.628C297.733 163.188 298.143 165.014 298.143 165.014H302.243L298.663 149.105ZM269.576 148.971H274.007L271.235 164.889H266.81L269.576 148.966V148.971ZM258.329 157.744L258.788 159.954L263.118 149.105H267.811L260.838 164.993H256.156L252.33 151.54C252.268 151.318 252.122 151.128 251.923 151.007C250.543 150.309 249.082 149.779 247.571 149.429L247.631 149.095H254.762C255.73 149.132 256.509 149.429 256.768 150.442L258.326 157.752V157.744H258.329ZM293.196 159.368L294.962 154.916C294.94 154.964 295.326 153.997 295.55 153.399L295.853 154.774L296.878 159.365H293.194V159.368H293.196Z" fill="white"/>
<path d="M25.6233 128.29V119.422H29.0955C29.6278 119.422 30.0816 119.531 30.4571 119.749C30.8367 119.966 31.1256 120.253 31.3236 120.611C31.5258 120.964 31.6269 121.345 31.6269 121.756C31.6269 122.236 31.5031 122.657 31.2555 123.018C31.008 123.38 30.6737 123.628 30.2529 123.763L30.2405 123.462C30.814 123.614 31.2597 123.893 31.5774 124.299C31.8951 124.706 32.0539 125.19 32.0539 125.752C32.0539 126.27 31.9467 126.717 31.7321 127.095C31.5217 127.473 31.2163 127.766 30.8161 127.975C30.42 128.185 29.9496 128.29 29.4049 128.29H25.6233ZM26.7374 127.243H29.1945C29.5246 127.243 29.8196 127.183 30.0796 127.064C30.3395 126.941 30.5438 126.769 30.6923 126.547C30.845 126.325 30.9213 126.058 30.9213 125.746C30.9213 125.447 30.8532 125.178 30.7171 124.94C30.585 124.702 30.3973 124.513 30.1538 124.373C29.9145 124.229 29.636 124.158 29.3183 124.158H26.7374V127.243ZM26.7374 123.123H29.0831C29.3472 123.123 29.5844 123.068 29.7949 122.957C30.0094 122.842 30.1786 122.682 30.3024 122.476C30.4303 122.271 30.4943 122.031 30.4943 121.756C30.4943 121.374 30.3643 121.062 30.1043 120.82C29.8444 120.578 29.504 120.457 29.0831 120.457H26.7374V123.123Z" fill="white"/>
<path d="M35.6001 128.474C35.1008 128.474 34.682 128.384 34.3437 128.203C34.0094 128.019 33.7557 127.776 33.5824 127.477C33.4132 127.177 33.3286 126.849 33.3286 126.491C33.3286 126.142 33.3946 125.841 33.5267 125.586C33.6628 125.328 33.8526 125.114 34.0961 124.946C34.3395 124.773 34.6304 124.638 34.9688 124.539C35.2865 124.453 35.6413 124.379 36.0333 124.318C36.4294 124.252 36.8297 124.192 37.234 124.139C37.6384 124.086 38.016 124.034 38.3667 123.985L37.9706 124.213C37.983 123.622 37.8633 123.185 37.6116 122.901C37.364 122.618 36.9349 122.476 36.3242 122.476C35.9199 122.476 35.565 122.569 35.2597 122.754C34.9585 122.934 34.746 123.23 34.6222 123.64L33.5762 123.326C33.7371 122.743 34.0486 122.286 34.5108 121.953C34.9729 121.621 35.5815 121.454 36.3366 121.454C36.9432 121.454 37.4631 121.563 37.8963 121.781C38.3337 121.994 38.6473 122.318 38.8371 122.754C38.932 122.959 38.9918 123.183 39.0166 123.425C39.0413 123.663 39.0537 123.913 39.0537 124.176V128.29H38.0758V126.695L38.3048 126.842C38.0531 127.38 37.7003 127.787 37.2464 128.062C36.7967 128.337 36.2479 128.474 35.6001 128.474ZM35.7672 127.557C36.1633 127.557 36.5058 127.487 36.7946 127.347C37.0876 127.204 37.3228 127.017 37.5002 126.787C37.6776 126.553 37.7931 126.298 37.8468 126.023C37.9087 125.818 37.9417 125.59 37.9458 125.34C37.9541 125.085 37.9582 124.89 37.9582 124.755L38.3419 124.921C37.983 124.97 37.6302 125.018 37.2836 125.063C36.937 125.108 36.6089 125.157 36.2995 125.211C35.99 125.26 35.7115 125.319 35.4639 125.389C35.2824 125.447 35.1111 125.521 34.9502 125.611C34.7934 125.701 34.6655 125.818 34.5665 125.962C34.4716 126.101 34.4241 126.276 34.4241 126.485C34.4241 126.666 34.4695 126.838 34.5603 127.003C34.6552 127.167 34.7996 127.3 34.9935 127.403C35.1916 127.505 35.4495 127.557 35.7672 127.557Z" fill="white"/>
<path d="M41.1993 128.29V119.237H42.301V128.29H41.1993Z" fill="white"/>
<path d="M46.4708 128.474C45.9715 128.474 45.5527 128.384 45.2144 128.203C44.8802 128.019 44.6264 127.776 44.4531 127.477C44.2839 127.177 44.1993 126.849 44.1993 126.491C44.1993 126.142 44.2654 125.841 44.3974 125.586C44.5336 125.328 44.7234 125.114 44.9668 124.946C45.2103 124.773 45.5011 124.638 45.8395 124.539C46.1572 124.453 46.5121 124.379 46.904 124.318C47.3002 124.252 47.7004 124.192 48.1048 124.139C48.5091 124.086 48.8867 124.034 49.2374 123.985L48.8413 124.213C48.8537 123.622 48.734 123.185 48.4823 122.901C48.2347 122.618 47.8056 122.476 47.1949 122.476C46.7906 122.476 46.4357 122.569 46.1304 122.754C45.8292 122.934 45.6167 123.23 45.4929 123.64L44.4469 123.326C44.6078 122.743 44.9194 122.286 45.3815 121.953C45.8436 121.621 46.4522 121.454 47.2073 121.454C47.8139 121.454 48.3338 121.563 48.767 121.781C49.2044 121.994 49.518 122.318 49.7078 122.754C49.8027 122.959 49.8625 123.183 49.8873 123.425C49.912 123.663 49.9244 123.913 49.9244 124.176V128.29H48.9465V126.695L49.1755 126.842C48.9238 127.38 48.571 127.787 48.1171 128.062C47.6674 128.337 47.1186 128.474 46.4708 128.474ZM46.6379 127.557C47.034 127.557 47.3765 127.487 47.6653 127.347C47.9583 127.204 48.1935 127.017 48.3709 126.787C48.5483 126.553 48.6639 126.298 48.7175 126.023C48.7794 125.818 48.8124 125.59 48.8165 125.34C48.8248 125.085 48.8289 124.89 48.8289 124.755L49.2126 124.921C48.8537 124.97 48.5009 125.018 48.1543 125.063C47.8077 125.108 47.4797 125.157 47.1702 125.211C46.8607 125.26 46.5822 125.319 46.3346 125.389C46.1531 125.447 45.9818 125.521 45.8209 125.611C45.6641 125.701 45.5362 125.818 45.4372 125.962C45.3423 126.101 45.2948 126.276 45.2948 126.485C45.2948 126.666 45.3402 126.838 45.431 127.003C45.5259 127.167 45.6703 127.3 45.8643 127.403C46.0623 127.505 46.3202 127.557 46.6379 127.557Z" fill="white"/>
<path d="M56.7058 128.29V124.958C56.7058 124.642 56.6769 124.338 56.6191 124.047C56.5655 123.755 56.4685 123.495 56.3283 123.265C56.1921 123.031 56.0064 122.846 55.7712 122.71C55.5401 122.575 55.2472 122.507 54.8923 122.507C54.6159 122.507 54.3642 122.554 54.1372 122.649C53.9144 122.739 53.7226 122.879 53.5616 123.068C53.4007 123.256 53.2749 123.495 53.1841 123.782C53.0975 124.065 53.0541 124.4 53.0541 124.786L52.33 124.564C52.33 123.919 52.4455 123.367 52.6766 122.908C52.9118 122.444 53.2398 122.089 53.6607 121.842C54.0857 121.592 54.5849 121.467 55.1585 121.467C55.5917 121.467 55.961 121.534 56.2664 121.67C56.5717 121.805 56.8255 121.986 57.0276 122.212C57.2298 122.433 57.3887 122.684 57.5042 122.963C57.6197 123.238 57.7002 123.519 57.7456 123.807C57.7951 124.09 57.8199 124.359 57.8199 124.613V128.29H56.7058ZM51.9401 128.29V121.639H52.9303V123.419H53.0541V128.29H51.9401Z" fill="white"/>
<path d="M62.5973 128.474C61.9206 128.474 61.345 128.324 60.8705 128.025C60.4001 127.721 60.0411 127.304 59.7935 126.775C59.546 126.245 59.4181 125.642 59.4098 124.964C59.4181 124.27 59.548 123.661 59.7997 123.135C60.0555 122.606 60.4207 122.193 60.8952 121.898C61.3697 121.602 61.9412 121.454 62.6097 121.454C63.3152 121.454 63.9218 121.627 64.4293 121.972C64.9409 122.316 65.2834 122.788 65.4567 123.388L64.3674 123.714C64.2271 123.328 63.9981 123.029 63.6804 122.815C63.3668 122.602 63.0058 122.495 62.5973 122.495C62.1393 122.495 61.7617 122.602 61.4646 122.815C61.1676 123.025 60.9468 123.316 60.8024 123.69C60.658 124.059 60.5837 124.484 60.5796 124.964C60.5878 125.703 60.7591 126.301 61.0933 126.756C61.4316 127.208 61.933 127.434 62.5973 127.434C63.0346 127.434 63.3978 127.335 63.6866 127.138C63.9754 126.937 64.1941 126.647 64.3427 126.27L65.4567 126.559C65.2257 127.179 64.8646 127.653 64.3736 127.982C63.8826 128.31 63.2905 128.474 62.5973 128.474Z" fill="white"/>
<path d="M69.8478 128.474C69.1917 128.474 68.6182 128.331 68.1272 128.043C67.6403 127.752 67.2607 127.347 66.9883 126.83C66.716 126.309 66.5798 125.701 66.5798 125.007C66.5798 124.281 66.714 123.653 66.9822 123.123C67.2504 122.589 67.6238 122.179 68.1024 121.891C68.5852 121.6 69.1505 121.454 69.7983 121.454C70.4708 121.454 71.0423 121.608 71.5127 121.916C71.9872 122.224 72.3421 122.663 72.5773 123.234C72.8166 123.805 72.9197 124.484 72.8867 125.272H71.7727V124.878C71.7603 124.061 71.5932 123.451 71.2713 123.049C70.9495 122.643 70.4708 122.44 69.8354 122.44C69.1546 122.44 68.6368 122.657 68.2819 123.092C67.927 123.527 67.7496 124.151 67.7496 124.964C67.7496 125.748 67.927 126.356 68.2819 126.787C68.6368 127.218 69.1422 127.434 69.7983 127.434C70.2398 127.434 70.6235 127.333 70.9495 127.132C71.2754 126.931 71.5313 126.641 71.7169 126.264L72.7753 126.627C72.5154 127.214 72.1234 127.67 71.5994 127.994C71.0795 128.314 70.4956 128.474 69.8478 128.474ZM67.3783 125.272V124.392H72.3173V125.272H67.3783Z" fill="white"/>
<path d="M31.1441 168.726V165.771H34.5111V168.726H31.1441ZM31.1441 149.046V146.09H34.5111V149.046H31.1441ZM32.8524 166.633C31.5732 166.633 30.4303 166.399 29.4235 165.931C28.4167 165.454 27.5956 164.785 26.9602 163.923C26.3247 163.053 25.9204 162.027 25.7471 160.844L29.0893 160.327C29.3121 161.296 29.7784 162.068 30.4881 162.642C31.206 163.217 32.0601 163.504 33.0504 163.504C33.9829 163.504 34.7545 163.287 35.3652 162.852C35.9841 162.417 36.2936 161.879 36.2936 161.238C36.2936 160.803 36.1574 160.446 35.8851 160.167C35.621 159.88 35.2043 159.646 34.6349 159.465L30.2281 158.11C27.6864 157.33 26.4155 155.787 26.4155 153.479C26.4155 152.396 26.6713 151.456 27.183 150.659C27.7029 149.863 28.4332 149.251 29.374 148.824C30.323 148.389 31.4412 148.175 32.7286 148.184C33.9087 148.2 34.9567 148.414 35.8727 148.824C36.7887 149.226 37.5521 149.813 38.1628 150.585C38.7817 151.349 39.2314 152.281 39.512 153.381L36.046 153.997C35.9305 153.471 35.7159 153.011 35.4023 152.617C35.0888 152.215 34.6968 151.903 34.2264 151.681C33.7643 151.451 33.2485 151.328 32.6791 151.312C32.1344 151.295 31.6393 151.373 31.1936 151.546C30.7563 151.718 30.4055 151.96 30.1415 152.272C29.8856 152.576 29.7577 152.921 29.7577 153.307C29.7577 153.734 29.9393 154.103 30.3024 154.415C30.6655 154.719 31.2432 154.982 32.0354 155.204L35.1795 156.09C36.7557 156.542 37.8904 157.154 38.5836 157.925C39.2851 158.697 39.6358 159.719 39.6358 160.992C39.6358 162.109 39.3511 163.09 38.7817 163.936C38.2123 164.781 37.4159 165.442 36.3926 165.918C35.3776 166.395 34.1975 166.633 32.8524 166.633Z" fill="white"/>
<path d="M41.8547 166.239V163.332L49.3313 156.731C49.8925 156.238 50.2886 155.774 50.5196 155.339C50.7507 154.904 50.8662 154.498 50.8662 154.12C50.8662 153.578 50.7548 153.098 50.532 152.679C50.3092 152.252 49.9956 151.919 49.5913 151.681C49.1869 151.435 48.7124 151.312 48.1677 151.312C47.5983 151.312 47.0949 151.443 46.6575 151.706C46.2284 151.96 45.8942 152.301 45.6549 152.728C45.4156 153.147 45.3042 153.603 45.3207 154.095H41.8547C41.8547 152.88 42.1229 151.829 42.6593 150.942C43.1957 150.056 43.9425 149.37 44.8998 148.886C45.8571 148.401 46.9711 148.159 48.242 148.159C49.4056 148.159 50.4454 148.414 51.3614 148.923C52.2857 149.423 53.0119 150.125 53.54 151.029C54.0682 151.932 54.3322 152.979 54.3322 154.169C54.3322 155.048 54.2085 155.778 53.9609 156.361C53.7133 156.936 53.3461 157.47 52.8592 157.962C52.3723 158.447 51.774 158.997 51.0643 159.613L46.2367 163.825L45.9643 163.086H54.3322V166.239H41.8547Z" fill="white"/>
<path d="M64.0614 166.263V163.504H56.3124V160.376L61.9323 148.528H65.7944L60.1745 160.376H64.0614V155.943H67.4779V160.376H69.0623V163.504H67.4779V166.263H64.0614Z" fill="white"/>
<path d="M71.3079 169.588L71.5059 168.184C71.902 168.217 72.2239 168.152 72.4715 167.987C72.719 167.831 72.8882 167.602 72.979 167.298C73.078 167.002 73.0986 166.657 73.0409 166.263H71.3079V162.913H74.6748V166.263C74.6748 167.446 74.3984 168.34 73.8455 168.948C73.2926 169.556 72.4467 169.769 71.3079 169.588Z" fill="white"/>
<path d="M85.9989 166.633C84.6785 166.633 83.5232 166.358 82.5329 165.808C81.5426 165.257 80.771 164.49 80.2181 163.504C79.6652 162.519 79.3887 161.37 79.3887 160.056V154.736C79.3887 153.422 79.6652 152.272 80.2181 151.287C80.771 150.302 81.5426 149.534 82.5329 148.984C83.5232 148.434 84.6785 148.159 85.9989 148.159C87.3193 148.159 88.4746 148.434 89.4649 148.984C90.4552 149.534 91.2268 150.302 91.7797 151.287C92.3326 152.272 92.609 153.422 92.609 154.736V160.056C92.609 161.37 92.3326 162.519 91.7797 163.504C91.2268 164.49 90.4552 165.257 89.4649 165.808C88.4746 166.358 87.3193 166.633 85.9989 166.633ZM85.9989 163.455C86.5931 163.455 87.1295 163.316 87.6081 163.036C88.0867 162.757 88.4663 162.38 88.7469 161.903C89.0275 161.427 89.1678 160.894 89.1678 160.302V154.465C89.1678 153.874 89.0275 153.34 88.7469 152.864C88.4663 152.387 88.0867 152.01 87.6081 151.731C87.1295 151.451 86.5931 151.312 85.9989 151.312C85.4047 151.312 84.8683 151.451 84.3897 151.731C83.911 152.01 83.5314 152.387 83.2509 152.864C82.9703 153.34 82.83 153.874 82.83 154.465V160.302C82.83 160.894 82.9703 161.427 83.2509 161.903C83.5314 162.38 83.911 162.757 84.3897 163.036C84.8683 163.316 85.4047 163.455 85.9989 163.455Z" fill="white"/>
<path d="M101.79 148.184C102.97 148.184 104.026 148.459 104.959 149.009C105.899 149.559 106.642 150.327 107.187 151.312C107.731 152.289 108.004 153.422 108.004 154.711V159.859C108.004 161.255 107.731 162.462 107.187 163.48C106.642 164.49 105.875 165.27 104.884 165.82C103.894 166.362 102.73 166.633 101.394 166.633C100.527 166.633 99.7018 166.505 98.9178 166.251C98.1421 165.988 97.4242 165.557 96.764 164.958L99.1654 162.568C99.4625 162.864 99.805 163.094 100.193 163.258C100.589 163.422 100.989 163.504 101.394 163.504C102.037 163.504 102.594 163.357 103.065 163.061C103.543 162.757 103.911 162.367 104.166 161.891C104.43 161.407 104.562 160.894 104.562 160.352V157.716L105.132 158.332C104.628 158.849 104.038 159.247 103.362 159.526C102.685 159.797 101.988 159.933 101.27 159.933C100.147 159.933 99.1572 159.682 98.2989 159.182C97.4489 158.681 96.7805 157.995 96.2936 157.125C95.8149 156.255 95.5756 155.261 95.5756 154.144C95.5756 153.028 95.8603 152.022 96.4298 151.127C96.9992 150.224 97.7543 149.51 98.695 148.984C99.6358 148.45 100.667 148.184 101.79 148.184ZM101.79 151.386C101.278 151.386 100.808 151.509 100.379 151.755C99.9576 152.002 99.6193 152.334 99.3635 152.753C99.1159 153.172 98.9921 153.635 98.9921 154.144C98.9921 154.654 99.1159 155.122 99.3635 155.548C99.611 155.967 99.9453 156.304 100.366 156.558C100.787 156.805 101.253 156.928 101.765 156.928C102.277 156.928 102.743 156.805 103.164 156.558C103.593 156.304 103.931 155.967 104.179 155.548C104.435 155.122 104.562 154.654 104.562 154.144C104.562 153.652 104.439 153.196 104.191 152.777C103.944 152.359 103.609 152.022 103.188 151.768C102.768 151.513 102.301 151.386 101.79 151.386Z" fill="white"/>
<path d="M117.438 166.633C116.233 166.633 115.16 166.39 114.219 165.906C113.287 165.413 112.552 164.74 112.016 163.886C111.488 163.024 111.224 162.043 111.224 160.943C111.224 160.007 111.434 159.124 111.855 158.295C112.284 157.466 112.899 156.788 113.7 156.263L113.625 157.297C113.023 156.714 112.548 156.099 112.202 155.45C111.863 154.801 111.694 154.071 111.694 153.258C111.694 152.231 111.938 151.336 112.425 150.573C112.92 149.809 113.596 149.218 114.455 148.799C115.321 148.372 116.316 148.159 117.438 148.159C118.56 148.159 119.55 148.372 120.409 148.799C121.275 149.218 121.952 149.809 122.439 150.573C122.934 151.336 123.182 152.231 123.182 153.258C123.182 154.071 123.021 154.801 122.699 155.45C122.377 156.09 121.886 156.714 121.226 157.322V156.287C122.01 156.78 122.612 157.445 123.033 158.283C123.462 159.12 123.677 160.007 123.677 160.943C123.677 162.043 123.408 163.024 122.872 163.886C122.336 164.74 121.597 165.413 120.656 165.906C119.716 166.39 118.643 166.633 117.438 166.633ZM117.438 163.48C118.23 163.48 118.874 163.266 119.369 162.839C119.864 162.412 120.112 161.78 120.112 160.943C120.112 160.114 119.864 159.481 119.369 159.046C118.874 158.603 118.23 158.381 117.438 158.381C116.646 158.381 116.006 158.603 115.519 159.046C115.032 159.481 114.789 160.114 114.789 160.943C114.789 161.78 115.032 162.412 115.519 162.839C116.006 163.266 116.646 163.48 117.438 163.48ZM117.438 155.204C118.082 155.204 118.606 155.048 119.01 154.736C119.414 154.415 119.617 153.923 119.617 153.258C119.617 152.593 119.414 152.1 119.01 151.78C118.606 151.451 118.082 151.287 117.438 151.287C116.794 151.287 116.27 151.451 115.866 151.78C115.461 152.1 115.259 152.593 115.259 153.258C115.259 153.923 115.461 154.415 115.866 154.736C116.27 155.048 116.794 155.204 117.438 155.204Z" fill="white"/>
<path d="M127.441 166.263V162.913H130.808V166.263H127.441Z" fill="white"/>
<path d="M141.436 166.633C140.116 166.633 138.961 166.358 137.97 165.808C136.98 165.257 136.209 164.49 135.656 163.504C135.103 162.519 134.826 161.37 134.826 160.056V154.736C134.826 153.422 135.103 152.272 135.656 151.287C136.209 150.302 136.98 149.534 137.97 148.984C138.961 148.434 140.116 148.159 141.436 148.159C142.757 148.159 143.912 148.434 144.902 148.984C145.893 149.534 146.664 150.302 147.217 151.287C147.77 152.272 148.047 153.422 148.047 154.736V160.056C148.047 161.37 147.77 162.519 147.217 163.504C146.664 164.49 145.893 165.257 144.902 165.808C143.912 166.358 142.757 166.633 141.436 166.633ZM141.436 163.455C142.031 163.455 142.567 163.316 143.046 163.036C143.524 162.757 143.904 162.38 144.184 161.903C144.465 161.427 144.605 160.894 144.605 160.302V154.465C144.605 153.874 144.465 153.34 144.184 152.864C143.904 152.387 143.524 152.01 143.046 151.731C142.567 151.451 142.031 151.312 141.436 151.312C140.842 151.312 140.306 151.451 139.827 151.731C139.349 152.01 138.969 152.387 138.688 152.864C138.408 153.34 138.268 153.874 138.268 154.465V160.302C138.268 160.894 138.408 161.427 138.688 161.903C138.969 162.38 139.349 162.757 139.827 163.036C140.306 163.316 140.842 163.455 141.436 163.455Z" fill="white"/>
<path d="M158.118 166.633C156.798 166.633 155.643 166.358 154.652 165.808C153.662 165.257 152.891 164.49 152.338 163.504C151.785 162.519 151.508 161.37 151.508 160.056V154.736C151.508 153.422 151.785 152.272 152.338 151.287C152.891 150.302 153.662 149.534 154.652 148.984C155.643 148.434 156.798 148.159 158.118 148.159C159.439 148.159 160.594 148.434 161.584 148.984C162.575 149.534 163.346 150.302 163.899 151.287C164.452 152.272 164.729 153.422 164.729 154.736V160.056C164.729 161.37 164.452 162.519 163.899 163.504C163.346 164.49 162.575 165.257 161.584 165.808C160.594 166.358 159.439 166.633 158.118 166.633ZM158.118 163.455C158.713 163.455 159.249 163.316 159.728 163.036C160.206 162.757 160.586 162.38 160.866 161.903C161.147 161.427 161.287 160.894 161.287 160.302V154.465C161.287 153.874 161.147 153.34 160.866 152.864C160.586 152.387 160.206 152.01 159.728 151.731C159.249 151.451 158.713 151.312 158.118 151.312C157.524 151.312 156.988 151.451 156.509 151.731C156.031 152.01 155.651 152.387 155.37 152.864C155.09 153.34 154.95 153.874 154.95 154.465V160.302C154.95 160.894 155.09 161.427 155.37 161.903C155.651 162.38 156.031 162.757 156.509 163.036C156.988 163.316 157.524 163.455 158.118 163.455Z" fill="white"/>
<g opacity="0.6">
<path d="M90.7763 125.553C91.5359 125.553 92.1517 124.94 92.1517 124.184C92.1517 123.428 91.5359 122.816 90.7763 122.816C90.0167 122.816 89.4009 123.428 89.4009 124.184C89.4009 124.94 90.0167 125.553 90.7763 125.553Z" stroke="white" stroke-width="1.5" stroke-linecap="round" stroke-linejoin="round"/>
<path d="M97.6534 124.184C95.8193 127.377 93.5272 128.974 90.7764 128.974C88.0256 128.974 85.7335 127.377 83.8994 124.184C85.7335 120.991 88.0256 119.395 90.7764 119.395C93.5272 119.395 95.8193 120.991 97.6534 124.184Z" stroke="white" stroke-width="1.5" stroke-linecap="round" stroke-linejoin="round"/>
</g>
<defs>
<linearGradient id="paint0_linear_1311_13981" x1="98.5123" y1="97.5" x2="238.803" y2="97.5" gradientUnits="userSpaceOnUse">
<stop stop-color="white" stop-opacity="0.15"/>
<stop offset="1" stop-color="white" stop-opacity="0"/>
</linearGradient>
<linearGradient id="paint1_linear_1311_13981" x1="223.33" y1="97.5" x2="333.19" y2="97.5" gradientUnits="userSpaceOnUse">
<stop stop-color="white" stop-opacity="0.15"/>
<stop offset="1" stop-color="white" stop-opacity="0"/>
</linearGradient>
<linearGradient id="paint2_linear_1311_13981" x1="24.7573" y1="26.6842" x2="57.6426" y2="51.9903" gradientUnits="userSpaceOnUse">
<stop stop-color="#E6AC3C"/>
<stop offset="1" stop-color="#FFDA93"/>
</linearGradient>
</defs>
</svg>
