<svg width="215" height="74" viewBox="0 0 215 74" fill="none" xmlns="http://www.w3.org/2000/svg">
<rect x="0.5" y="0.5" width="214" height="73" rx="11.5" fill="white"/>
<path d="M12.84 26V17.36H18.3V18.374H13.908V21.08H17.58V22.094H13.908V24.986H18.3V26H12.84ZM24.7563 26V22.754C24.7563 22.446 24.7283 22.15 24.6723 21.866C24.6203 21.582 24.5263 21.328 24.3903 21.104C24.2583 20.876 24.0783 20.696 23.8503 20.564C23.6263 20.432 23.3423 20.366 22.9983 20.366C22.7303 20.366 22.4863 20.412 22.2663 20.504C22.0503 20.592 21.8643 20.728 21.7083 20.912C21.5523 21.096 21.4303 21.328 21.3423 21.608C21.2583 21.884 21.2163 22.21 21.2163 22.586L20.5143 22.37C20.5143 21.742 20.6263 21.204 20.8503 20.756C21.0783 20.304 21.3963 19.958 21.8043 19.718C22.2163 19.474 22.7003 19.352 23.2563 19.352C23.6763 19.352 24.0343 19.418 24.3303 19.55C24.6263 19.682 24.8723 19.858 25.0683 20.078C25.2643 20.294 25.4183 20.538 25.5303 20.81C25.6423 21.078 25.7203 21.352 25.7643 21.632C25.8123 21.908 25.8363 22.17 25.8363 22.418V26H24.7563ZM20.1363 26V19.52H21.0963V21.254H21.2163V26H20.1363ZM31.4143 26C31.0303 26.076 30.6503 26.106 30.2743 26.09C29.9023 26.078 29.5703 26.004 29.2783 25.868C28.9863 25.728 28.7643 25.512 28.6123 25.22C28.4843 24.964 28.4143 24.706 28.4023 24.446C28.3943 24.182 28.3903 23.884 28.3903 23.552V17.72H29.4583V23.504C29.4583 23.768 29.4603 23.994 29.4643 24.182C29.4723 24.37 29.5143 24.532 29.5903 24.668C29.7343 24.924 29.9623 25.074 30.2743 25.118C30.5903 25.162 30.9703 25.15 31.4143 25.082V26ZM27.0763 20.402V19.52H31.4143V20.402H27.0763ZM35.6683 26.18C35.0323 26.18 34.4763 26.04 34.0003 25.76C33.5283 25.476 33.1603 25.082 32.8963 24.578C32.6323 24.07 32.5003 23.478 32.5003 22.802C32.5003 22.094 32.6303 21.482 32.8903 20.966C33.1503 20.446 33.5123 20.046 33.9763 19.766C34.4443 19.482 34.9923 19.34 35.6203 19.34C36.2723 19.34 36.8263 19.49 37.2823 19.79C37.7423 20.09 38.0863 20.518 38.3143 21.074C38.5463 21.63 38.6463 22.292 38.6143 23.06H37.5343V22.676C37.5223 21.88 37.3603 21.286 37.0483 20.894C36.7363 20.498 36.2723 20.3 35.6563 20.3C34.9963 20.3 34.4943 20.512 34.1503 20.936C33.8063 21.36 33.6343 21.968 33.6343 22.76C33.6343 23.524 33.8063 24.116 34.1503 24.536C34.4943 24.956 34.9843 25.166 35.6203 25.166C36.0483 25.166 36.4203 25.068 36.7363 24.872C37.0523 24.676 37.3003 24.394 37.4803 24.026L38.5063 24.38C38.2543 24.952 37.8743 25.396 37.3663 25.712C36.8623 26.024 36.2963 26.18 35.6683 26.18ZM33.2743 23.06V22.202H38.0623V23.06H33.2743ZM40.3502 26V19.52H41.3042V21.086L41.1482 20.882C41.2242 20.682 41.3222 20.498 41.4422 20.33C41.5662 20.162 41.7042 20.024 41.8562 19.916C42.0242 19.78 42.2142 19.676 42.4262 19.604C42.6382 19.532 42.8542 19.49 43.0742 19.478C43.2942 19.462 43.5002 19.476 43.6922 19.52V20.522C43.4682 20.462 43.2222 20.446 42.9542 20.474C42.6862 20.502 42.4382 20.6 42.2102 20.768C42.0022 20.916 41.8402 21.096 41.7242 21.308C41.6122 21.52 41.5342 21.75 41.4902 21.998C41.4462 22.242 41.4242 22.492 41.4242 22.748V26H40.3502ZM49.8711 26.18C49.3871 26.18 48.9811 26.092 48.6531 25.916C48.3291 25.736 48.0831 25.5 47.9151 25.208C47.7511 24.916 47.6691 24.596 47.6691 24.248C47.6691 23.908 47.7331 23.614 47.8611 23.366C47.9931 23.114 48.1771 22.906 48.4131 22.742C48.6491 22.574 48.9311 22.442 49.2591 22.346C49.5671 22.262 49.9111 22.19 50.2911 22.13C50.6751 22.066 51.0631 22.008 51.4551 21.956C51.8471 21.904 52.2131 21.854 52.5531 21.806L52.1691 22.028C52.1811 21.452 52.0651 21.026 51.8211 20.75C51.5811 20.474 51.1651 20.336 50.5731 20.336C50.1811 20.336 49.8371 20.426 49.5411 20.606C49.2491 20.782 49.0431 21.07 48.9231 21.47L47.9091 21.164C48.0651 20.596 48.3671 20.15 48.8151 19.826C49.2631 19.502 49.8531 19.34 50.5851 19.34C51.1731 19.34 51.6771 19.446 52.0971 19.658C52.5211 19.866 52.8251 20.182 53.0091 20.606C53.1011 20.806 53.1591 21.024 53.1831 21.26C53.2071 21.492 53.2191 21.736 53.2191 21.992V26H52.2711V24.446L52.4931 24.59C52.2491 25.114 51.9071 25.51 51.4671 25.778C51.0311 26.046 50.4991 26.18 49.8711 26.18ZM50.0331 25.286C50.4171 25.286 50.7491 25.218 51.0291 25.082C51.3131 24.942 51.5411 24.76 51.7131 24.536C51.8851 24.308 51.9971 24.06 52.0491 23.792C52.1091 23.592 52.1411 23.37 52.1451 23.126C52.1531 22.878 52.1571 22.688 52.1571 22.556L52.5291 22.718C52.1811 22.766 51.8391 22.812 51.5031 22.856C51.1671 22.9 50.8491 22.948 50.5491 23C50.2491 23.048 49.9791 23.106 49.7391 23.174C49.5631 23.23 49.3971 23.302 49.2411 23.39C49.0891 23.478 48.9651 23.592 48.8691 23.732C48.7771 23.868 48.7311 24.038 48.7311 24.242C48.7311 24.418 48.7751 24.586 48.8631 24.746C48.9551 24.906 49.0951 25.036 49.2831 25.136C49.4751 25.236 49.7251 25.286 50.0331 25.286ZM62.9251 26L62.9311 21.854C62.9311 21.37 62.8011 20.992 62.5411 20.72C62.2851 20.444 61.9511 20.306 61.5391 20.306C61.2991 20.306 61.0711 20.362 60.8551 20.474C60.6391 20.582 60.4631 20.754 60.3271 20.99C60.1911 21.222 60.1231 21.52 60.1231 21.884L59.5591 21.656C59.5511 21.196 59.6451 20.794 59.8411 20.45C60.0411 20.102 60.3131 19.832 60.6571 19.64C61.0011 19.448 61.3891 19.352 61.8211 19.352C62.4971 19.352 63.0291 19.558 63.4171 19.97C63.8051 20.378 63.9991 20.928 63.9991 21.62L63.9931 26H62.9251ZM55.1731 26V19.52H56.1271V21.254H56.2471V26H55.1731ZM59.0551 26L59.0611 21.896C59.0611 21.4 58.9331 21.012 58.6771 20.732C58.4211 20.448 58.0811 20.306 57.6571 20.306C57.2371 20.306 56.8971 20.45 56.6371 20.738C56.3771 21.026 56.2471 21.408 56.2471 21.884L55.6831 21.548C55.6831 21.128 55.7831 20.752 55.9831 20.42C56.1831 20.088 56.4551 19.828 56.7991 19.64C57.1431 19.448 57.5331 19.352 57.9691 19.352C58.4051 19.352 58.7851 19.444 59.1091 19.628C59.4331 19.812 59.6831 20.076 59.8591 20.42C60.0351 20.76 60.1231 21.166 60.1231 21.638L60.1171 26H59.0551ZM68.6633 26.18C68.0193 26.18 67.4633 26.034 66.9953 25.742C66.5313 25.45 66.1733 25.046 65.9213 24.53C65.6693 24.014 65.5433 23.422 65.5433 22.754C65.5433 22.074 65.6713 21.478 65.9273 20.966C66.1833 20.454 66.5453 20.056 67.0133 19.772C67.4813 19.484 68.0313 19.34 68.6633 19.34C69.3113 19.34 69.8693 19.486 70.3373 19.778C70.8053 20.066 71.1633 20.468 71.4113 20.984C71.6633 21.496 71.7893 22.086 71.7893 22.754C71.7893 23.43 71.6633 24.026 71.4113 24.542C71.1593 25.054 70.7993 25.456 70.3313 25.748C69.8633 26.036 69.3073 26.18 68.6633 26.18ZM68.6633 25.166C69.3353 25.166 69.8353 24.942 70.1633 24.494C70.4913 24.046 70.6553 23.466 70.6553 22.754C70.6553 22.022 70.4893 21.44 70.1573 21.008C69.8253 20.572 69.3273 20.354 68.6633 20.354C68.2113 20.354 67.8393 20.456 67.5473 20.66C67.2553 20.864 67.0373 21.146 66.8933 21.506C66.7493 21.866 66.6773 22.282 66.6773 22.754C66.6773 23.482 66.8453 24.066 67.1813 24.506C67.5173 24.946 68.0113 25.166 68.6633 25.166ZM75.9703 26.168C75.5543 26.168 75.1963 26.102 74.8963 25.97C74.6003 25.838 74.3543 25.662 74.1583 25.442C73.9623 25.222 73.8083 24.978 73.6963 24.71C73.5843 24.442 73.5043 24.168 73.4563 23.888C73.4123 23.608 73.3903 23.346 73.3903 23.102V19.52H74.4703V22.766C74.4703 23.07 74.4983 23.364 74.5543 23.648C74.6103 23.932 74.7043 24.188 74.8363 24.416C74.9723 24.644 75.1523 24.824 75.3763 24.956C75.6043 25.088 75.8883 25.154 76.2283 25.154C76.4963 25.154 76.7403 25.108 76.9603 25.016C77.1803 24.924 77.3683 24.788 77.5243 24.608C77.6803 24.424 77.8003 24.192 77.8843 23.912C77.9683 23.632 78.0103 23.306 78.0103 22.934L78.7123 23.15C78.7123 23.774 78.5983 24.312 78.3703 24.764C78.1463 25.216 77.8283 25.564 77.4163 25.808C77.0083 26.048 76.5263 26.168 75.9703 26.168ZM78.1303 26V24.266H78.0103V19.52H79.0843V26H78.1303ZM85.7782 26V22.754C85.7782 22.446 85.7502 22.15 85.6942 21.866C85.6422 21.582 85.5482 21.328 85.4122 21.104C85.2802 20.876 85.1002 20.696 84.8722 20.564C84.6482 20.432 84.3642 20.366 84.0202 20.366C83.7522 20.366 83.5082 20.412 83.2882 20.504C83.0722 20.592 82.8862 20.728 82.7302 20.912C82.5742 21.096 82.4522 21.328 82.3642 21.608C82.2802 21.884 82.2382 22.21 82.2382 22.586L81.5362 22.37C81.5362 21.742 81.6482 21.204 81.8722 20.756C82.1002 20.304 82.4182 19.958 82.8262 19.718C83.2382 19.474 83.7222 19.352 84.2782 19.352C84.6982 19.352 85.0562 19.418 85.3522 19.55C85.6482 19.682 85.8942 19.858 86.0902 20.078C86.2862 20.294 86.4402 20.538 86.5522 20.81C86.6642 21.078 86.7422 21.352 86.7862 21.632C86.8342 21.908 86.8582 22.17 86.8582 22.418V26H85.7782ZM81.1582 26V19.52H82.1182V21.254H82.2382V26H81.1582ZM92.4361 26C92.0521 26.076 91.6721 26.106 91.2961 26.09C90.9241 26.078 90.5921 26.004 90.3001 25.868C90.0081 25.728 89.7861 25.512 89.6341 25.22C89.5061 24.964 89.4361 24.706 89.4241 24.446C89.4161 24.182 89.4121 23.884 89.4121 23.552V17.72H90.4801V23.504C90.4801 23.768 90.4821 23.994 90.4861 24.182C90.4941 24.37 90.5361 24.532 90.6121 24.668C90.7561 24.924 90.9841 25.074 91.2961 25.118C91.6121 25.162 91.9921 25.15 92.4361 25.082V26ZM88.0981 20.402V19.52H92.4361V20.402H88.0981Z" fill="#718096"/>
<path d="M16.644 58.8V56.64H19.092V58.8H16.644ZM16.644 44.418V42.258H19.092V44.418H16.644ZM17.886 57.27C16.956 57.27 16.125 57.099 15.393 56.757C14.661 56.409 14.064 55.92 13.602 55.29C13.14 54.654 12.846 53.904 12.72 53.04L15.15 52.662C15.312 53.37 15.651 53.934 16.167 54.354C16.689 54.774 17.31 54.984 18.03 54.984C18.708 54.984 19.269 54.825 19.713 54.507C20.163 54.189 20.388 53.796 20.388 53.328C20.388 53.01 20.289 52.749 20.091 52.545C19.899 52.335 19.596 52.164 19.182 52.032L15.978 51.042C14.13 50.472 13.206 49.344 13.206 47.658C13.206 46.866 13.392 46.179 13.764 45.597C14.142 45.015 14.673 44.568 15.357 44.256C16.047 43.938 16.86 43.782 17.796 43.788C18.654 43.8 19.416 43.956 20.082 44.256C20.748 44.55 21.303 44.979 21.747 45.543C22.197 46.101 22.524 46.782 22.728 47.586L20.208 48.036C20.124 47.652 19.968 47.316 19.74 47.028C19.512 46.734 19.227 46.506 18.885 46.344C18.549 46.176 18.174 46.086 17.76 46.074C17.364 46.062 17.004 46.119 16.68 46.245C16.362 46.371 16.107 46.548 15.915 46.776C15.729 46.998 15.636 47.25 15.636 47.532C15.636 47.844 15.768 48.114 16.032 48.342C16.296 48.564 16.716 48.756 17.292 48.918L19.578 49.566C20.724 49.896 21.549 50.343 22.053 50.907C22.563 51.471 22.818 52.218 22.818 53.148C22.818 53.964 22.611 54.681 22.197 55.299C21.783 55.917 21.204 56.4 20.46 56.748C19.722 57.096 18.864 57.27 17.886 57.27ZM27.2412 57V46.704L24.8112 48.198V45.498L27.2412 44.04H29.7433V57H27.2412ZM32.4644 59.43L32.6084 58.404C32.8964 58.428 33.1304 58.38 33.3104 58.26C33.4904 58.146 33.6134 57.978 33.6794 57.756C33.7514 57.54 33.7664 57.288 33.7244 57H32.4644V54.552H34.9124V57C34.9124 57.864 34.7114 58.518 34.3094 58.962C33.9074 59.406 33.2924 59.562 32.4644 59.43ZM38.1797 56.982V54.858L43.6157 50.034C44.0237 49.674 44.3117 49.335 44.4797 49.017C44.6477 48.699 44.7317 48.402 44.7317 48.126C44.7317 47.73 44.6507 47.379 44.4887 47.073C44.3267 46.761 44.0987 46.518 43.8047 46.344C43.5107 46.164 43.1657 46.074 42.7697 46.074C42.3557 46.074 41.9897 46.17 41.6717 46.362C41.3597 46.548 41.1167 46.797 40.9427 47.109C40.7687 47.415 40.6877 47.748 40.6997 48.108H38.1797C38.1797 47.22 38.3747 46.452 38.7647 45.804C39.1547 45.156 39.6977 44.655 40.3937 44.301C41.0897 43.947 41.8997 43.77 42.8237 43.77C43.6697 43.77 44.4257 43.956 45.0917 44.328C45.7637 44.694 46.2917 45.207 46.6757 45.867C47.0597 46.527 47.2517 47.292 47.2517 48.162C47.2517 48.804 47.1617 49.338 46.9817 49.764C46.8017 50.184 46.5347 50.574 46.1807 50.934C45.8267 51.288 45.3917 51.69 44.8757 52.14L41.3657 55.218L41.1677 54.678H47.2517V56.982H38.1797ZM54.5254 57V54.984H48.8914V52.698L52.9774 44.04H55.7854L51.6994 52.698H54.5254V49.458H57.0094V52.698H58.1614V54.984H57.0094V57H54.5254Z" fill="#1A202C"/>
<line x1="64.5" y1="38.5" x2="64.5" y2="61.5" stroke="#194BFB" stroke-linecap="round"/>
<g clip-path="url(#clip0_1074_11552)">
<path d="M193 60C198.523 60 203 55.5228 203 50C203 44.4772 198.523 40 193 40C187.477 40 183 44.4772 183 50C183 55.5228 187.477 60 193 60Z" fill="#F0F0F0"/>
<path d="M192.565 49.9998H203C203 49.0973 202.88 48.2229 202.655 47.3911H192.565V49.9998Z" fill="#D80027"/>
<path d="M192.565 44.7825H201.532C200.92 43.7836 200.137 42.9007 199.225 42.1738H192.565V44.7825Z" fill="#D80027"/>
<path d="M193 60.0001C195.353 60.0001 197.517 59.1866 199.225 57.8262H186.775C188.483 59.1866 190.647 60.0001 193 60.0001Z" fill="#D80027"/>
<path d="M184.468 55.2171H201.532C202.024 54.4152 202.405 53.5386 202.655 52.6084H183.344C183.595 53.5386 183.976 54.4152 184.468 55.2171Z" fill="#D80027"/>
<path d="M187.632 41.5616H188.543L187.696 42.1775L188.02 43.1739L187.172 42.5581L186.324 43.1739L186.604 42.3131C185.858 42.9348 185.204 43.6631 184.665 44.4747H184.957L184.417 44.8667C184.333 45.0069 184.252 45.1494 184.175 45.2939L184.433 46.087L183.952 45.7377C183.832 45.9909 183.723 46.2497 183.625 46.514L183.909 47.3877H184.957L184.109 48.0036L184.433 49L183.585 48.3842L183.077 48.7531C183.026 49.1616 183 49.5777 183 50H193C193 44.4772 193 43.8261 193 40C191.025 40 189.183 40.573 187.632 41.5616ZM188.02 49L187.172 48.3842L186.324 49L186.648 48.0036L185.801 47.3877H186.848L187.172 46.3913L187.496 47.3877H188.543L187.696 48.0036L188.02 49ZM187.696 45.0905L188.02 46.087L187.172 45.4711L186.324 46.087L186.648 45.0905L185.801 44.4747H186.848L187.172 43.4782L187.496 44.4747H188.543L187.696 45.0905ZM191.607 49L190.759 48.3842L189.911 49L190.235 48.0036L189.387 47.3877H190.435L190.759 46.3913L191.083 47.3877H192.13L191.283 48.0036L191.607 49ZM191.283 45.0905L191.607 46.087L190.759 45.4711L189.911 46.087L190.235 45.0905L189.387 44.4747H190.435L190.759 43.4782L191.083 44.4747H192.13L191.283 45.0905ZM191.283 42.1775L191.607 43.1739L190.759 42.5581L189.911 43.1739L190.235 42.1775L189.387 41.5616H190.435L190.759 40.5652L191.083 41.5616H192.13L191.283 42.1775Z" fill="#0052B4"/>
</g>
<rect x="0.5" y="0.5" width="214" height="73" rx="11.5" stroke="#194BFB"/>
<defs>
<clipPath id="clip0_1074_11552">
<rect width="20" height="20" fill="white" transform="translate(183 40)"/>
</clipPath>
</defs>
</svg>
