<svg width="294" height="145" viewBox="0 0 294 145" fill="none" xmlns="http://www.w3.org/2000/svg">
<path d="M2.93 141.145C2.45 141.145 2.03833 141.012 1.695 140.745C1.35167 140.478 1.12 140.122 1 139.675L1.735 139.5C1.795 139.763 1.93333 139.987 2.15 140.17C2.37 140.35 2.62833 140.44 2.925 140.44C3.11167 140.44 3.3 140.395 3.49 140.305C3.68333 140.215 3.835 140.067 3.945 139.86C4.01833 139.717 4.06 139.562 4.07 139.395C4.08333 139.225 4.09 139.022 4.09 138.785V133.8H4.83V138.785C4.83 138.985 4.82833 139.167 4.825 139.33C4.82167 139.49 4.80333 139.645 4.77 139.795C4.74 139.942 4.68167 140.09 4.595 140.24C4.42167 140.543 4.18833 140.77 3.895 140.92C3.605 141.07 3.28333 141.145 2.93 141.145ZM8.28367 141.15C7.87701 141.15 7.53534 141.077 7.25867 140.93C6.98534 140.783 6.78034 140.588 6.64367 140.345C6.50701 140.102 6.43867 139.837 6.43867 139.55C6.43867 139.257 6.49701 139.007 6.61367 138.8C6.73367 138.59 6.89534 138.418 7.09867 138.285C7.30534 138.152 7.54367 138.05 7.81367 137.98C8.08701 137.913 8.38867 137.855 8.71867 137.805C9.05201 137.752 9.37701 137.707 9.69367 137.67C10.0137 137.63 10.2937 137.592 10.5337 137.555L10.2737 137.715C10.2837 137.182 10.1803 136.787 9.96367 136.53C9.74701 136.273 9.37034 136.145 8.83367 136.145C8.46367 136.145 8.15034 136.228 7.89367 136.395C7.64034 136.562 7.46201 136.825 7.35867 137.185L6.64367 136.975C6.76701 136.492 7.01534 136.117 7.38867 135.85C7.76201 135.583 8.24701 135.45 8.84367 135.45C9.33701 135.45 9.75534 135.543 10.0987 135.73C10.4453 135.913 10.6903 136.18 10.8337 136.53C10.9003 136.687 10.9437 136.862 10.9637 137.055C10.9837 137.248 10.9937 137.445 10.9937 137.645V141H10.3387V139.645L10.5287 139.725C10.3453 140.188 10.0603 140.542 9.67367 140.785C9.28701 141.028 8.82367 141.15 8.28367 141.15ZM8.36867 140.515C8.71201 140.515 9.01201 140.453 9.26867 140.33C9.52534 140.207 9.73201 140.038 9.88867 139.825C10.0453 139.608 10.147 139.365 10.1937 139.095C10.2337 138.922 10.2553 138.732 10.2587 138.525C10.262 138.315 10.2637 138.158 10.2637 138.055L10.5437 138.2C10.2937 138.233 10.022 138.267 9.72867 138.3C9.43867 138.333 9.15201 138.372 8.86867 138.415C8.58867 138.458 8.33534 138.51 8.10867 138.57C7.95534 138.613 7.80701 138.675 7.66367 138.755C7.52034 138.832 7.40201 138.935 7.30867 139.065C7.21867 139.195 7.17367 139.357 7.17367 139.55C7.17367 139.707 7.21201 139.858 7.28867 140.005C7.36867 140.152 7.49534 140.273 7.66867 140.37C7.84534 140.467 8.07867 140.515 8.36867 140.515ZM16.5953 141V138.245C16.5953 137.945 16.567 137.67 16.5103 137.42C16.4536 137.167 16.362 136.947 16.2353 136.76C16.112 136.57 15.9503 136.423 15.7503 136.32C15.5536 136.217 15.3136 136.165 15.0303 136.165C14.7703 136.165 14.5403 136.21 14.3403 136.3C14.1436 136.39 13.977 136.52 13.8403 136.69C13.707 136.857 13.6053 137.06 13.5353 137.3C13.4653 137.54 13.4303 137.813 13.4303 138.12L12.9103 138.005C12.9103 137.452 13.007 136.987 13.2003 136.61C13.3936 136.233 13.6603 135.948 14.0003 135.755C14.3403 135.562 14.7303 135.465 15.1703 135.465C15.4936 135.465 15.7753 135.515 16.0153 135.615C16.2586 135.715 16.4636 135.85 16.6303 136.02C16.8003 136.19 16.937 136.385 17.0403 136.605C17.1436 136.822 17.2186 137.053 17.2653 137.3C17.312 137.543 17.3353 137.787 17.3353 138.03V141H16.5953ZM12.6903 141V135.6H13.3553V136.93H13.4303V141H12.6903ZM22.6898 141V134.62L21.3348 135.435V134.61L22.6898 133.8H23.4348V141H22.6898ZM26.9863 141V134.62L25.6313 135.435V134.61L26.9863 133.8H27.7313V141H26.9863Z" fill="#718096"/>
<path d="M66.96 141.15C66.3867 141.15 65.9133 141.003 65.54 140.71C65.17 140.417 64.9067 140.02 64.75 139.52L66.09 139.2C66.12 139.383 66.2167 139.543 66.38 139.68C66.5433 139.813 66.7167 139.88 66.9 139.88C67.0267 139.88 67.1617 139.845 67.305 139.775C67.4517 139.705 67.5567 139.593 67.62 139.44C67.66 139.343 67.6833 139.225 67.69 139.085C67.6967 138.945 67.7 138.783 67.7 138.6V133.8H69.08V138.6C69.08 138.83 69.0783 139.03 69.075 139.2C69.075 139.37 69.0583 139.53 69.025 139.68C68.995 139.827 68.9333 139.98 68.84 140.14C68.6367 140.493 68.3717 140.75 68.045 140.91C67.7183 141.07 67.3567 141.15 66.96 141.15ZM72.477 141.15C72.0903 141.15 71.762 141.077 71.492 140.93C71.2253 140.78 71.022 140.582 70.882 140.335C70.7453 140.085 70.677 139.81 70.677 139.51C70.677 139.26 70.7153 139.032 70.792 138.825C70.8686 138.618 70.992 138.437 71.162 138.28C71.3353 138.12 71.567 137.987 71.857 137.88C72.057 137.807 72.2953 137.742 72.572 137.685C72.8486 137.628 73.162 137.575 73.512 137.525C73.862 137.472 74.247 137.413 74.667 137.35L74.177 137.62C74.177 137.3 74.1003 137.065 73.947 136.915C73.7936 136.765 73.537 136.69 73.177 136.69C72.977 136.69 72.7686 136.738 72.552 136.835C72.3353 136.932 72.1836 137.103 72.097 137.35L70.867 136.96C71.0036 136.513 71.2603 136.15 71.637 135.87C72.0136 135.59 72.527 135.45 73.177 135.45C73.6536 135.45 74.077 135.523 74.447 135.67C74.817 135.817 75.097 136.07 75.287 136.43C75.3936 136.63 75.457 136.83 75.477 137.03C75.497 137.23 75.507 137.453 75.507 137.7V141H74.317V139.89L74.487 140.12C74.2236 140.483 73.9386 140.747 73.632 140.91C73.3286 141.07 72.9436 141.15 72.477 141.15ZM72.767 140.08C73.017 140.08 73.227 140.037 73.397 139.95C73.5703 139.86 73.707 139.758 73.807 139.645C73.9103 139.532 73.9803 139.437 74.017 139.36C74.087 139.213 74.127 139.043 74.137 138.85C74.1503 138.653 74.157 138.49 74.157 138.36L74.557 138.46C74.1536 138.527 73.827 138.583 73.577 138.63C73.327 138.673 73.1253 138.713 72.972 138.75C72.8186 138.787 72.6836 138.827 72.567 138.87C72.4336 138.923 72.3253 138.982 72.242 139.045C72.162 139.105 72.102 139.172 72.062 139.245C72.0253 139.318 72.007 139.4 72.007 139.49C72.007 139.613 72.037 139.72 72.097 139.81C72.1603 139.897 72.2486 139.963 72.362 140.01C72.4753 140.057 72.6103 140.08 72.767 140.08ZM80.887 141V138.45C80.887 138.327 80.8804 138.17 80.867 137.98C80.8537 137.787 80.812 137.593 80.742 137.4C80.672 137.207 80.557 137.045 80.397 136.915C80.2404 136.785 80.017 136.72 79.727 136.72C79.6104 136.72 79.4854 136.738 79.352 136.775C79.2187 136.812 79.0937 136.883 78.977 136.99C78.8604 137.093 78.7637 137.247 78.687 137.45C78.6137 137.653 78.577 137.923 78.577 138.26L77.797 137.89C77.797 137.463 77.8837 137.063 78.057 136.69C78.2304 136.317 78.4904 136.015 78.837 135.785C79.187 135.555 79.627 135.44 80.157 135.44C80.5804 135.44 80.9254 135.512 81.192 135.655C81.4587 135.798 81.6654 135.98 81.812 136.2C81.962 136.42 82.0687 136.65 82.132 136.89C82.1954 137.127 82.2337 137.343 82.247 137.54C82.2604 137.737 82.267 137.88 82.267 137.97V141H80.887ZM77.197 141V135.6H78.407V137.39H78.577V141H77.197ZM87.6164 141V135.28L86.2664 136.11V134.61L87.6164 133.8H89.0064V141H87.6164ZM91.1074 140.99V139.81L94.1274 137.13C94.3541 136.93 94.5141 136.742 94.6074 136.565C94.7008 136.388 94.7474 136.223 94.7474 136.07C94.7474 135.85 94.7024 135.655 94.6124 135.485C94.5224 135.312 94.3958 135.177 94.2324 135.08C94.0691 134.98 93.8774 134.93 93.6574 134.93C93.4274 134.93 93.2241 134.983 93.0474 135.09C92.8741 135.193 92.7391 135.332 92.6424 135.505C92.5458 135.675 92.5008 135.86 92.5074 136.06H91.1074C91.1074 135.567 91.2158 135.14 91.4324 134.78C91.6491 134.42 91.9508 134.142 92.3374 133.945C92.7241 133.748 93.1741 133.65 93.6874 133.65C94.1574 133.65 94.5774 133.753 94.9474 133.96C95.3208 134.163 95.6141 134.448 95.8274 134.815C96.0408 135.182 96.1474 135.607 96.1474 136.09C96.1474 136.447 96.0974 136.743 95.9974 136.98C95.8974 137.213 95.7491 137.43 95.5524 137.63C95.3558 137.827 95.1141 138.05 94.8274 138.3L92.8774 140.01L92.7674 139.71H96.1474V140.99H91.1074Z" fill="#1A202C"/>
<path d="M134.43 141.145C133.95 141.145 133.538 141.012 133.195 140.745C132.852 140.478 132.62 140.122 132.5 139.675L133.235 139.5C133.295 139.763 133.433 139.987 133.65 140.17C133.87 140.35 134.128 140.44 134.425 140.44C134.612 140.44 134.8 140.395 134.99 140.305C135.183 140.215 135.335 140.067 135.445 139.86C135.518 139.717 135.56 139.562 135.57 139.395C135.583 139.225 135.59 139.022 135.59 138.785V133.8H136.33V138.785C136.33 138.985 136.328 139.167 136.325 139.33C136.322 139.49 136.303 139.645 136.27 139.795C136.24 139.942 136.182 140.09 136.095 140.24C135.922 140.543 135.688 140.77 135.395 140.92C135.105 141.07 134.783 141.145 134.43 141.145ZM139.784 141.15C139.377 141.15 139.035 141.077 138.759 140.93C138.485 140.783 138.28 140.588 138.144 140.345C138.007 140.102 137.939 139.837 137.939 139.55C137.939 139.257 137.997 139.007 138.114 138.8C138.234 138.59 138.395 138.418 138.599 138.285C138.805 138.152 139.044 138.05 139.314 137.98C139.587 137.913 139.889 137.855 140.219 137.805C140.552 137.752 140.877 137.707 141.194 137.67C141.514 137.63 141.794 137.592 142.034 137.555L141.774 137.715C141.784 137.182 141.68 136.787 141.464 136.53C141.247 136.273 140.87 136.145 140.334 136.145C139.964 136.145 139.65 136.228 139.394 136.395C139.14 136.562 138.962 136.825 138.859 137.185L138.144 136.975C138.267 136.492 138.515 136.117 138.889 135.85C139.262 135.583 139.747 135.45 140.344 135.45C140.837 135.45 141.255 135.543 141.599 135.73C141.945 135.913 142.19 136.18 142.334 136.53C142.4 136.687 142.444 136.862 142.464 137.055C142.484 137.248 142.494 137.445 142.494 137.645V141H141.839V139.645L142.029 139.725C141.845 140.188 141.56 140.542 141.174 140.785C140.787 141.028 140.324 141.15 139.784 141.15ZM139.869 140.515C140.212 140.515 140.512 140.453 140.769 140.33C141.025 140.207 141.232 140.038 141.389 139.825C141.545 139.608 141.647 139.365 141.694 139.095C141.734 138.922 141.755 138.732 141.759 138.525C141.762 138.315 141.764 138.158 141.764 138.055L142.044 138.2C141.794 138.233 141.522 138.267 141.229 138.3C140.939 138.333 140.652 138.372 140.369 138.415C140.089 138.458 139.835 138.51 139.609 138.57C139.455 138.613 139.307 138.675 139.164 138.755C139.02 138.832 138.902 138.935 138.809 139.065C138.719 139.195 138.674 139.357 138.674 139.55C138.674 139.707 138.712 139.858 138.789 140.005C138.869 140.152 138.995 140.273 139.169 140.37C139.345 140.467 139.579 140.515 139.869 140.515ZM148.095 141V138.245C148.095 137.945 148.067 137.67 148.01 137.42C147.954 137.167 147.862 136.947 147.735 136.76C147.612 136.57 147.45 136.423 147.25 136.32C147.054 136.217 146.814 136.165 146.53 136.165C146.27 136.165 146.04 136.21 145.84 136.3C145.644 136.39 145.477 136.52 145.34 136.69C145.207 136.857 145.105 137.06 145.035 137.3C144.965 137.54 144.93 137.813 144.93 138.12L144.41 138.005C144.41 137.452 144.507 136.987 144.7 136.61C144.894 136.233 145.16 135.948 145.5 135.755C145.84 135.562 146.23 135.465 146.67 135.465C146.994 135.465 147.275 135.515 147.515 135.615C147.759 135.715 147.964 135.85 148.13 136.02C148.3 136.19 148.437 136.385 148.54 136.605C148.644 136.822 148.719 137.053 148.765 137.3C148.812 137.543 148.835 137.787 148.835 138.03V141H148.095ZM144.19 141V135.6H144.855V136.93H144.93V141H144.19ZM154.19 141V134.62L152.835 135.435V134.61L154.19 133.8H154.935V141H154.19ZM159.166 141.145C158.81 141.145 158.481 141.082 158.181 140.955C157.881 140.828 157.623 140.648 157.406 140.415C157.19 140.178 157.031 139.897 156.931 139.57L157.631 139.36C157.751 139.717 157.948 139.987 158.221 140.17C158.498 140.353 158.81 140.442 159.156 140.435C159.476 140.428 159.751 140.357 159.981 140.22C160.215 140.083 160.393 139.893 160.516 139.65C160.64 139.407 160.701 139.125 160.701 138.805C160.701 138.315 160.558 137.922 160.271 137.625C159.988 137.325 159.613 137.175 159.146 137.175C159.016 137.175 158.88 137.193 158.736 137.23C158.593 137.263 158.46 137.312 158.336 137.375L157.966 136.79L160.766 134.205L160.886 134.505H157.216V133.8H161.376V134.515L158.936 136.845L158.926 136.555C159.426 136.492 159.866 136.548 160.246 136.725C160.626 136.902 160.923 137.172 161.136 137.535C161.353 137.895 161.461 138.318 161.461 138.805C161.461 139.265 161.361 139.672 161.161 140.025C160.965 140.375 160.693 140.65 160.346 140.85C160 141.047 159.606 141.145 159.166 141.145Z" fill="#718096"/>
<path d="M200.18 141.145C199.7 141.145 199.288 141.012 198.945 140.745C198.602 140.478 198.37 140.122 198.25 139.675L198.985 139.5C199.045 139.763 199.183 139.987 199.4 140.17C199.62 140.35 199.878 140.44 200.175 140.44C200.362 140.44 200.55 140.395 200.74 140.305C200.933 140.215 201.085 140.067 201.195 139.86C201.268 139.717 201.31 139.562 201.32 139.395C201.333 139.225 201.34 139.022 201.34 138.785V133.8H202.08V138.785C202.08 138.985 202.078 139.167 202.075 139.33C202.072 139.49 202.053 139.645 202.02 139.795C201.99 139.942 201.932 140.09 201.845 140.24C201.672 140.543 201.438 140.77 201.145 140.92C200.855 141.07 200.533 141.145 200.18 141.145ZM205.534 141.15C205.127 141.15 204.785 141.077 204.509 140.93C204.235 140.783 204.03 140.588 203.894 140.345C203.757 140.102 203.689 139.837 203.689 139.55C203.689 139.257 203.747 139.007 203.864 138.8C203.984 138.59 204.145 138.418 204.349 138.285C204.555 138.152 204.794 138.05 205.064 137.98C205.337 137.913 205.639 137.855 205.969 137.805C206.302 137.752 206.627 137.707 206.944 137.67C207.264 137.63 207.544 137.592 207.784 137.555L207.524 137.715C207.534 137.182 207.43 136.787 207.214 136.53C206.997 136.273 206.62 136.145 206.084 136.145C205.714 136.145 205.4 136.228 205.144 136.395C204.89 136.562 204.712 136.825 204.609 137.185L203.894 136.975C204.017 136.492 204.265 136.117 204.639 135.85C205.012 135.583 205.497 135.45 206.094 135.45C206.587 135.45 207.005 135.543 207.349 135.73C207.695 135.913 207.94 136.18 208.084 136.53C208.15 136.687 208.194 136.862 208.214 137.055C208.234 137.248 208.244 137.445 208.244 137.645V141H207.589V139.645L207.779 139.725C207.595 140.188 207.31 140.542 206.924 140.785C206.537 141.028 206.074 141.15 205.534 141.15ZM205.619 140.515C205.962 140.515 206.262 140.453 206.519 140.33C206.775 140.207 206.982 140.038 207.139 139.825C207.295 139.608 207.397 139.365 207.444 139.095C207.484 138.922 207.505 138.732 207.509 138.525C207.512 138.315 207.514 138.158 207.514 138.055L207.794 138.2C207.544 138.233 207.272 138.267 206.979 138.3C206.689 138.333 206.402 138.372 206.119 138.415C205.839 138.458 205.585 138.51 205.359 138.57C205.205 138.613 205.057 138.675 204.914 138.755C204.77 138.832 204.652 138.935 204.559 139.065C204.469 139.195 204.424 139.357 204.424 139.55C204.424 139.707 204.462 139.858 204.539 140.005C204.619 140.152 204.745 140.273 204.919 140.37C205.095 140.467 205.329 140.515 205.619 140.515ZM213.845 141V138.245C213.845 137.945 213.817 137.67 213.76 137.42C213.704 137.167 213.612 136.947 213.485 136.76C213.362 136.57 213.2 136.423 213 136.32C212.804 136.217 212.564 136.165 212.28 136.165C212.02 136.165 211.79 136.21 211.59 136.3C211.394 136.39 211.227 136.52 211.09 136.69C210.957 136.857 210.855 137.06 210.785 137.3C210.715 137.54 210.68 137.813 210.68 138.12L210.16 138.005C210.16 137.452 210.257 136.987 210.45 136.61C210.644 136.233 210.91 135.948 211.25 135.755C211.59 135.562 211.98 135.465 212.42 135.465C212.744 135.465 213.025 135.515 213.265 135.615C213.509 135.715 213.714 135.85 213.88 136.02C214.05 136.19 214.187 136.385 214.29 136.605C214.394 136.822 214.469 137.053 214.515 137.3C214.562 137.543 214.585 137.787 214.585 138.03V141H213.845ZM209.94 141V135.6H210.605V136.93H210.68V141H209.94ZM219.94 141V134.62L218.585 135.435V134.61L219.94 133.8H220.685V141H219.94ZM226.151 141V139.605H222.781V138.905L225.191 133.8H226.016L223.606 138.905H226.151V136.805H226.891V138.905H227.676V139.605H226.891V141H226.151Z" fill="#718096"/>
<path d="M265.93 141.145C265.45 141.145 265.038 141.012 264.695 140.745C264.352 140.478 264.12 140.122 264 139.675L264.735 139.5C264.795 139.763 264.933 139.987 265.15 140.17C265.37 140.35 265.628 140.44 265.925 140.44C266.112 140.44 266.3 140.395 266.49 140.305C266.683 140.215 266.835 140.067 266.945 139.86C267.018 139.717 267.06 139.562 267.07 139.395C267.083 139.225 267.09 139.022 267.09 138.785V133.8H267.83V138.785C267.83 138.985 267.828 139.167 267.825 139.33C267.822 139.49 267.803 139.645 267.77 139.795C267.74 139.942 267.682 140.09 267.595 140.24C267.422 140.543 267.188 140.77 266.895 140.92C266.605 141.07 266.283 141.145 265.93 141.145ZM271.284 141.15C270.877 141.15 270.535 141.077 270.259 140.93C269.985 140.783 269.78 140.588 269.644 140.345C269.507 140.102 269.439 139.837 269.439 139.55C269.439 139.257 269.497 139.007 269.614 138.8C269.734 138.59 269.895 138.418 270.099 138.285C270.305 138.152 270.544 138.05 270.814 137.98C271.087 137.913 271.389 137.855 271.719 137.805C272.052 137.752 272.377 137.707 272.694 137.67C273.014 137.63 273.294 137.592 273.534 137.555L273.274 137.715C273.284 137.182 273.18 136.787 272.964 136.53C272.747 136.273 272.37 136.145 271.834 136.145C271.464 136.145 271.15 136.228 270.894 136.395C270.64 136.562 270.462 136.825 270.359 137.185L269.644 136.975C269.767 136.492 270.015 136.117 270.389 135.85C270.762 135.583 271.247 135.45 271.844 135.45C272.337 135.45 272.755 135.543 273.099 135.73C273.445 135.913 273.69 136.18 273.834 136.53C273.9 136.687 273.944 136.862 273.964 137.055C273.984 137.248 273.994 137.445 273.994 137.645V141H273.339V139.645L273.529 139.725C273.345 140.188 273.06 140.542 272.674 140.785C272.287 141.028 271.824 141.15 271.284 141.15ZM271.369 140.515C271.712 140.515 272.012 140.453 272.269 140.33C272.525 140.207 272.732 140.038 272.889 139.825C273.045 139.608 273.147 139.365 273.194 139.095C273.234 138.922 273.255 138.732 273.259 138.525C273.262 138.315 273.264 138.158 273.264 138.055L273.544 138.2C273.294 138.233 273.022 138.267 272.729 138.3C272.439 138.333 272.152 138.372 271.869 138.415C271.589 138.458 271.335 138.51 271.109 138.57C270.955 138.613 270.807 138.675 270.664 138.755C270.52 138.832 270.402 138.935 270.309 139.065C270.219 139.195 270.174 139.357 270.174 139.55C270.174 139.707 270.212 139.858 270.289 140.005C270.369 140.152 270.495 140.273 270.669 140.37C270.845 140.467 271.079 140.515 271.369 140.515ZM279.595 141V138.245C279.595 137.945 279.567 137.67 279.51 137.42C279.454 137.167 279.362 136.947 279.235 136.76C279.112 136.57 278.95 136.423 278.75 136.32C278.554 136.217 278.314 136.165 278.03 136.165C277.77 136.165 277.54 136.21 277.34 136.3C277.144 136.39 276.977 136.52 276.84 136.69C276.707 136.857 276.605 137.06 276.535 137.3C276.465 137.54 276.43 137.813 276.43 138.12L275.91 138.005C275.91 137.452 276.007 136.987 276.2 136.61C276.394 136.233 276.66 135.948 277 135.755C277.34 135.562 277.73 135.465 278.17 135.465C278.494 135.465 278.775 135.515 279.015 135.615C279.259 135.715 279.464 135.85 279.63 136.02C279.8 136.19 279.937 136.385 280.04 136.605C280.144 136.822 280.219 137.053 280.265 137.3C280.312 137.543 280.335 137.787 280.335 138.03V141H279.595ZM275.69 141V135.6H276.355V136.93H276.43V141H275.69ZM285.69 141V134.62L284.335 135.435V134.61L285.69 133.8H286.435V141H285.69ZM290.856 141.15C290.483 141.15 290.138 141.073 289.821 140.92C289.505 140.767 289.235 140.555 289.011 140.285C288.788 140.015 288.628 139.705 288.531 139.355L289.236 139.165C289.3 139.425 289.415 139.65 289.581 139.84C289.748 140.027 289.943 140.172 290.166 140.275C290.393 140.378 290.63 140.43 290.876 140.43C291.196 140.43 291.483 140.353 291.736 140.2C291.993 140.043 292.196 139.837 292.346 139.58C292.496 139.323 292.571 139.042 292.571 138.735C292.571 138.418 292.493 138.133 292.336 137.88C292.18 137.623 291.973 137.42 291.716 137.27C291.46 137.12 291.18 137.045 290.876 137.045C290.536 137.045 290.243 137.12 289.996 137.27C289.75 137.417 289.553 137.602 289.406 137.825L288.736 137.545L288.956 133.8H292.801V134.505H289.281L289.646 134.16L289.451 137.355L289.266 137.11C289.473 136.873 289.723 136.688 290.016 136.555C290.31 136.422 290.618 136.355 290.941 136.355C291.385 136.355 291.785 136.462 292.141 136.675C292.498 136.885 292.781 137.17 292.991 137.53C293.201 137.89 293.306 138.292 293.306 138.735C293.306 139.175 293.195 139.578 292.971 139.945C292.748 140.308 292.451 140.6 292.081 140.82C291.711 141.04 291.303 141.15 290.856 141.15Z" fill="#718096"/>
<line x1="1.5" y1="117.5" x2="291.5" y2="117.5" stroke="#F7FAFC" stroke-linecap="round"/>
<line x1="1.5" y1="73.5" x2="290.5" y2="73.5" stroke="#F7FAFC" stroke-linecap="round"/>
<line x1="1.5" y1="31.5" x2="290.5" y2="31.5" stroke="#F7FAFC" stroke-linecap="round"/>
<line x1="8.5" y1="1.5" x2="8.50001" y2="116.5" stroke="#F7FAFC" stroke-linecap="round"/>
<line x1="105.5" y1="1.5" x2="105.5" y2="117.5" stroke="#F7FAFC" stroke-linecap="round"/>
<line x1="153.5" y1="1.5" x2="153.5" y2="117.5" stroke="#F7FAFC" stroke-linecap="round"/>
<line x1="202.5" y1="1.5" x2="202.5" y2="117.5" stroke="#F7FAFC" stroke-linecap="round"/>
<line x1="252.5" y1="1.5" x2="252.5" y2="117.5" stroke="#F7FAFC" stroke-linecap="round"/>
<line x1="292.5" y1="0.5" x2="292.5" y2="116.5" stroke="#F7FAFC" stroke-linecap="round"/>
<line x1="53.5" y1="1.5" x2="53.5" y2="117.5" stroke="#F7FAFC" stroke-linecap="round"/>
<line x1="1.5" y1="0.5" x2="291.5" y2="0.500025" stroke="#F7FAFC" stroke-linecap="round"/>
<path d="M1 37.5095C1 37.5095 49.8899 81.5935 55.0362 81.5935C59.7146 81.5935 79.5981 56.0584 84.0758 53.3611C87.3175 51.4083 97.5332 53.1044 100.183 52.4535C102.833 51.8025 117.727 32.9266 123.809 32.9266C126.85 32.9266 142.289 80.1302 146.265 81.8939C151.412 84.1771 184.487 48.8485 190.244 48.8485C195.013 49.8967 211.063 67.2312 213.148 67.2312C216.911 67.2312 234.455 25.028 237.79 26.0171C242.174 27.3178 251.999 54.256 254.921 56.5314C257.379 58.446 264.163 58.8871 266.889 60.098C269.616 61.3089 288.491 80.9927 292 81.8939" stroke="#D8E3F8" stroke-width="1.5" stroke-linecap="round"/>
<path d="M1 73.6665C7.06597 73.6665 48.5512 62.0791 54.8505 62.0791C60.4498 62.0791 94.7095 82.9935 100.076 82.9935C105.442 82.1207 141.334 37.304 145.767 39.0497C148.567 40.1522 154.049 50.3907 156.382 51.5545C157.782 52.2528 164.781 52.9671 168.747 55.0459C170.614 56.0241 186.33 82.6887 189.593 82.9935C194.489 83.4507 209.873 59.606 212.439 59.0242C215.705 58.2836 232.717 69.5989 237.15 69.5989C242.049 69.5989 284.467 39.3347 291 39.3347" stroke="#194BFB" stroke-width="1.5" stroke-linecap="round"/>
<circle cx="80" cy="73" r="4.25" fill="white" stroke="#1A202C" stroke-width="1.5"/>
<g filter="url(#filter0_d_1073_8056)">
<path fill-rule="evenodd" clip-rule="evenodd" d="M54 26C50.6863 26 48 28.6863 48 32V48C48 51.3137 50.6863 54 54 54H71.4171L78.7965 61.3038C79.1862 61.6894 79.8138 61.6894 80.2035 61.3038L87.5829 54H106C109.314 54 112 51.3137 112 48V32C112 28.6863 109.314 26 106 26H54Z" fill="#1A202C"/>
</g>
<path d="M62.4732 46.194V44.79H63.7272V46.194H62.4732ZM62.4732 36.576V35.166H63.7272V36.576H62.4732ZM63.1632 45.18C62.5632 45.18 62.0272 45.072 61.5552 44.856C61.0832 44.64 60.6952 44.334 60.3912 43.938C60.0912 43.538 59.8952 43.066 59.8032 42.522L61.0452 42.324C61.1652 42.836 61.4212 43.244 61.8132 43.548C62.2052 43.848 62.6752 43.998 63.2232 43.998C63.7672 43.998 64.2092 43.868 64.5492 43.608C64.8932 43.348 65.0652 43.016 65.0652 42.612C65.0652 42.324 64.9772 42.09 64.8012 41.91C64.6292 41.73 64.3472 41.578 63.9552 41.454L61.9272 40.83C60.7272 40.458 60.1272 39.738 60.1272 38.67C60.1272 38.166 60.2472 37.728 60.4872 37.356C60.7312 36.984 61.0732 36.696 61.5132 36.492C61.9532 36.288 62.4672 36.186 63.0552 36.186C63.6192 36.194 64.1192 36.298 64.5552 36.498C64.9952 36.698 65.3592 36.986 65.6472 37.362C65.9392 37.738 66.1412 38.19 66.2532 38.718L64.9752 38.946C64.9192 38.638 64.8012 38.366 64.6212 38.13C64.4452 37.894 64.2212 37.71 63.9492 37.578C63.6812 37.446 63.3792 37.378 63.0432 37.374C62.7272 37.366 62.4432 37.416 62.1912 37.524C61.9432 37.628 61.7452 37.776 61.5972 37.968C61.4532 38.156 61.3812 38.37 61.3812 38.61C61.3812 38.874 61.4832 39.098 61.6872 39.282C61.8912 39.466 62.2132 39.624 62.6532 39.756L64.2432 40.218C64.9712 40.434 65.4972 40.724 65.8212 41.088C66.1452 41.452 66.3072 41.936 66.3072 42.54C66.3072 43.068 66.1752 43.53 65.9112 43.926C65.6512 44.318 65.2852 44.626 64.8132 44.85C64.3412 45.07 63.7912 45.18 63.1632 45.18ZM70.55 45.18C70.106 45.18 69.692 45.09 69.308 44.91C68.928 44.726 68.602 44.474 68.33 44.154C68.058 43.83 67.864 43.458 67.748 43.038L68.954 42.714C69.022 42.97 69.138 43.192 69.302 43.38C69.47 43.568 69.666 43.714 69.89 43.818C70.114 43.918 70.346 43.968 70.586 43.968C70.902 43.968 71.188 43.892 71.444 43.74C71.704 43.588 71.908 43.384 72.056 43.128C72.208 42.872 72.284 42.59 72.284 42.282C72.284 41.966 72.206 41.68 72.05 41.424C71.898 41.168 71.692 40.966 71.432 40.818C71.176 40.666 70.894 40.59 70.586 40.59C70.234 40.59 69.936 40.66 69.692 40.8C69.448 40.94 69.258 41.102 69.122 41.286L68.03 40.902L68.294 36.36H72.956V37.542H68.936L69.446 37.068L69.236 40.47L68.99 40.152C69.218 39.924 69.49 39.75 69.806 39.63C70.122 39.51 70.436 39.45 70.748 39.45C71.284 39.45 71.762 39.574 72.182 39.822C72.606 40.07 72.94 40.408 73.184 40.836C73.428 41.26 73.55 41.742 73.55 42.282C73.55 42.818 73.412 43.306 73.136 43.746C72.86 44.182 72.494 44.53 72.038 44.79C71.582 45.05 71.086 45.18 70.55 45.18ZM75.2641 46.434L75.3421 45.876C75.5141 45.888 75.6481 45.856 75.7441 45.78C75.8401 45.704 75.9041 45.598 75.9361 45.462C75.9681 45.326 75.9741 45.172 75.9541 45H75.2641V43.554H76.5901V45.12C76.5901 45.592 76.4761 45.948 76.2481 46.188C76.0241 46.428 75.6961 46.51 75.2641 46.434ZM82.2766 45.18C81.6886 45.18 81.1686 45.052 80.7166 44.796C80.2646 44.536 79.9086 44.18 79.6486 43.728C79.3926 43.276 79.2646 42.756 79.2646 42.168V39.192C79.2646 38.604 79.3926 38.084 79.6486 37.632C79.9086 37.18 80.2646 36.826 80.7166 36.57C81.1686 36.31 81.6886 36.18 82.2766 36.18C82.8646 36.18 83.3846 36.31 83.8366 36.57C84.2886 36.826 84.6426 37.18 84.8986 37.632C85.1586 38.084 85.2886 38.604 85.2886 39.192V42.168C85.2886 42.756 85.1586 43.276 84.8986 43.728C84.6426 44.18 84.2886 44.536 83.8366 44.796C83.3846 45.052 82.8646 45.18 82.2766 45.18ZM82.2766 43.98C82.5966 43.98 82.8866 43.904 83.1466 43.752C83.4106 43.596 83.6206 43.388 83.7766 43.128C83.9326 42.864 84.0106 42.57 84.0106 42.246V39.102C84.0106 38.782 83.9326 38.492 83.7766 38.232C83.6206 37.968 83.4106 37.76 83.1466 37.608C82.8866 37.452 82.5966 37.374 82.2766 37.374C81.9566 37.374 81.6646 37.452 81.4006 37.608C81.1406 37.76 80.9326 37.968 80.7766 38.232C80.6206 38.492 80.5426 38.782 80.5426 39.102V42.246C80.5426 42.57 80.6206 42.864 80.7766 43.128C80.9326 43.388 81.1406 43.596 81.4006 43.752C81.6646 43.904 81.9566 43.98 82.2766 43.98ZM89.9258 45.18C89.4818 45.18 89.0678 45.09 88.6838 44.91C88.3038 44.726 87.9778 44.474 87.7058 44.154C87.4338 43.83 87.2398 43.458 87.1238 43.038L88.3298 42.714C88.3978 42.97 88.5138 43.192 88.6778 43.38C88.8458 43.568 89.0418 43.714 89.2658 43.818C89.4898 43.918 89.7218 43.968 89.9618 43.968C90.2778 43.968 90.5638 43.892 90.8198 43.74C91.0798 43.588 91.2838 43.384 91.4318 43.128C91.5838 42.872 91.6598 42.59 91.6598 42.282C91.6598 41.966 91.5818 41.68 91.4258 41.424C91.2738 41.168 91.0678 40.966 90.8078 40.818C90.5518 40.666 90.2698 40.59 89.9618 40.59C89.6098 40.59 89.3118 40.66 89.0678 40.8C88.8238 40.94 88.6338 41.102 88.4978 41.286L87.4058 40.902L87.6698 36.36H92.3318V37.542H88.3118L88.8218 37.068L88.6118 40.47L88.3658 40.152C88.5938 39.924 88.8658 39.75 89.1818 39.63C89.4978 39.51 89.8118 39.45 90.1238 39.45C90.6598 39.45 91.1378 39.574 91.5578 39.822C91.9818 40.07 92.3158 40.408 92.5598 40.836C92.8038 41.26 92.9258 41.742 92.9258 42.282C92.9258 42.818 92.7878 43.306 92.5118 43.746C92.2358 44.182 91.8698 44.53 91.4138 44.79C90.9578 45.05 90.4618 45.18 89.9258 45.18ZM94.1918 44.994L94.1978 43.878L97.9598 40.506C98.2638 40.238 98.4698 39.982 98.5778 39.738C98.6898 39.494 98.7458 39.25 98.7458 39.006C98.7458 38.698 98.6778 38.422 98.5418 38.178C98.4058 37.93 98.2178 37.734 97.9778 37.59C97.7378 37.446 97.4618 37.374 97.1498 37.374C96.8298 37.374 96.5438 37.45 96.2918 37.602C96.0438 37.75 95.8498 37.948 95.7098 38.196C95.5698 38.444 95.5018 38.712 95.5058 39H94.2218C94.2218 38.44 94.3478 37.95 94.5998 37.53C94.8558 37.106 95.2058 36.776 95.6498 36.54C96.0938 36.3 96.6018 36.18 97.1738 36.18C97.7178 36.18 98.2058 36.304 98.6378 36.552C99.0698 36.796 99.4098 37.132 99.6578 37.56C99.9098 37.988 100.036 38.476 100.036 39.024C100.036 39.42 99.9838 39.756 99.8798 40.032C99.7758 40.308 99.6198 40.564 99.4118 40.8C99.2038 41.036 98.9438 41.292 98.6318 41.568L95.7278 44.16L95.5898 43.8H100.036V44.994H94.1918Z" fill="white"/>
<defs>
<filter id="filter0_d_1073_8056" x="36" y="14" width="96" height="67.593" filterUnits="userSpaceOnUse" color-interpolation-filters="sRGB">
<feFlood flood-opacity="0" result="BackgroundImageFix"/>
<feColorMatrix in="SourceAlpha" type="matrix" values="0 0 0 0 0 0 0 0 0 0 0 0 0 0 0 0 0 0 127 0" result="hardAlpha"/>
<feOffset dx="4" dy="4"/>
<feGaussianBlur stdDeviation="8"/>
<feComposite in2="hardAlpha" operator="out"/>
<feColorMatrix type="matrix" values="0 0 0 0 0.101961 0 0 0 0 0.12549 0 0 0 0 0.172549 0 0 0 0.08 0"/>
<feBlend mode="normal" in2="BackgroundImageFix" result="effect1_dropShadow_1073_8056"/>
<feBlend mode="normal" in="SourceGraphic" in2="effect1_dropShadow_1073_8056" result="shape"/>
</filter>
</defs>
</svg>
