<svg width="100%" height="323" viewBox="0 0 900 400" fill="none" xmlns="http://www.w3.org/2000/svg">
<rect x="0.5" y="0.5" width="712" height="322" rx="15.5" fill="white" stroke="#EDF2F7"/>
<path d="M25.26 48V35.04H27.456L31.74 43.644L36.024 35.04H38.22V48H35.934V40.26L32.172 48H31.308L27.546 40.26V48H25.26ZM45.3203 48.27C44.3423 48.27 43.4843 48.051 42.7463 47.613C42.0083 47.175 41.4323 46.572 41.0183 45.804C40.6103 45.03 40.4063 44.142 40.4063 43.14C40.4063 42.126 40.6163 41.235 41.0363 40.467C41.4563 39.693 42.0353 39.09 42.7733 38.658C43.5113 38.226 44.3603 38.01 45.3203 38.01C46.2983 38.01 47.1563 38.229 47.8943 38.667C48.6383 39.105 49.2173 39.711 49.6313 40.485C50.0453 41.253 50.2523 42.138 50.2523 43.14C50.2523 44.148 50.0423 45.039 49.6223 45.813C49.2083 46.581 48.6293 47.184 47.8853 47.622C47.1473 48.054 46.2923 48.27 45.3203 48.27ZM45.3203 45.984C46.1063 45.984 46.6913 45.72 47.0753 45.192C47.4653 44.658 47.6603 43.974 47.6603 43.14C47.6603 42.276 47.4623 41.586 47.0663 41.07C46.6763 40.554 46.0943 40.296 45.3203 40.296C44.7863 40.296 44.3483 40.416 44.0063 40.656C43.6643 40.896 43.4093 41.229 43.2413 41.655C43.0793 42.081 42.9983 42.576 42.9983 43.14C42.9983 44.01 43.1933 44.703 43.5833 45.219C43.9793 45.729 44.5583 45.984 45.3203 45.984ZM59.0555 48V43.41C59.0555 43.188 59.0435 42.906 59.0195 42.564C58.9955 42.216 58.9205 41.868 58.7945 41.52C58.6685 41.172 58.4615 40.881 58.1735 40.647C57.8915 40.413 57.4895 40.296 56.9675 40.296C56.7575 40.296 56.5325 40.329 56.2925 40.395C56.0525 40.461 55.8275 40.59 55.6175 40.782C55.4075 40.968 55.2335 41.244 55.0955 41.61C54.9635 41.976 54.8975 42.462 54.8975 43.068L53.4935 42.402C53.4935 41.634 53.6495 40.914 53.9615 40.242C54.2735 39.57 54.7415 39.027 55.3655 38.613C55.9955 38.199 56.7875 37.992 57.7415 37.992C58.5035 37.992 59.1245 38.121 59.6045 38.379C60.0845 38.637 60.4565 38.964 60.7205 39.36C60.9905 39.756 61.1825 40.17 61.2965 40.602C61.4105 41.028 61.4795 41.418 61.5035 41.772C61.5275 42.126 61.5395 42.384 61.5395 42.546V48H59.0555ZM52.4135 48V38.28H54.5915V41.502H54.8975V48H52.4135ZM68.4171 48.27C67.4211 48.27 66.5421 48.057 65.7801 47.631C65.0241 47.199 64.4301 46.608 63.9981 45.858C63.5721 45.102 63.3591 44.238 63.3591 43.266C63.3591 42.204 63.5691 41.28 63.9891 40.494C64.4091 39.708 64.9881 39.099 65.7261 38.667C66.4641 38.229 67.3131 38.01 68.2731 38.01C69.2931 38.01 70.1601 38.25 70.8741 38.73C71.5881 39.21 72.1161 39.885 72.4581 40.755C72.8001 41.625 72.9201 42.648 72.8181 43.824H70.3971V42.924C70.3971 41.934 70.2381 41.223 69.9201 40.791C69.6081 40.353 69.0951 40.134 68.3811 40.134C67.5471 40.134 66.9321 40.389 66.5361 40.899C66.1461 41.403 65.9511 42.15 65.9511 43.14C65.9511 44.046 66.1461 44.748 66.5361 45.246C66.9321 45.738 67.5111 45.984 68.2731 45.984C68.7531 45.984 69.1641 45.879 69.5061 45.669C69.8481 45.459 70.1091 45.156 70.2891 44.76L72.7371 45.462C72.3711 46.35 71.7921 47.04 71.0001 47.532C70.2141 48.024 69.3531 48.27 68.4171 48.27ZM65.1951 43.824V42.006H71.6391V43.824H65.1951ZM76.1165 52.32L77.9885 47.172L78.0245 48.684L73.7945 38.28H76.3325L79.1765 45.642H78.6005L81.4265 38.28H83.8745L78.3845 52.32H76.1165ZM89.1436 48V35.04H97.0636V37.488H91.5916V40.296H95.9836V42.744H91.5916V48H89.1436ZM99.0685 48V34.77H101.517V48H99.0685ZM108.789 48.27C107.811 48.27 106.953 48.051 106.215 47.613C105.477 47.175 104.901 46.572 104.487 45.804C104.079 45.03 103.875 44.142 103.875 43.14C103.875 42.126 104.085 41.235 104.505 40.467C104.925 39.693 105.504 39.09 106.242 38.658C106.98 38.226 107.829 38.01 108.789 38.01C109.767 38.01 110.625 38.229 111.363 38.667C112.107 39.105 112.686 39.711 113.1 40.485C113.514 41.253 113.721 42.138 113.721 43.14C113.721 44.148 113.511 45.039 113.091 45.813C112.677 46.581 112.098 47.184 111.354 47.622C110.616 48.054 109.761 48.27 108.789 48.27ZM108.789 45.984C109.575 45.984 110.16 45.72 110.544 45.192C110.934 44.658 111.129 43.974 111.129 43.14C111.129 42.276 110.931 41.586 110.535 41.07C110.145 40.554 109.563 40.296 108.789 40.296C108.255 40.296 107.817 40.416 107.475 40.656C107.133 40.896 106.878 41.229 106.71 41.655C106.548 42.081 106.467 42.576 106.467 43.14C106.467 44.01 106.662 44.703 107.052 45.219C107.448 45.729 108.027 45.984 108.789 45.984ZM117.618 48L114.648 38.262L117.042 38.28L118.806 44.076L120.597 38.28H122.631L124.422 44.076L126.186 38.28H128.58L125.61 48H123.738L121.614 41.664L119.49 48H117.618Z" fill="#1A202C"/>
<rect x="559" y="24" width="130" height="34" rx="8" fill="#FAFAFA"/>
<path d="M573.81 46.174C573.178 46.174 572.646 46.006 572.214 45.67C571.786 45.334 571.49 44.882 571.326 44.314L572.568 44.02C572.624 44.288 572.766 44.518 572.994 44.71C573.226 44.898 573.484 44.992 573.768 44.992C573.956 44.992 574.152 44.944 574.356 44.848C574.56 44.752 574.712 44.596 574.812 44.38C574.88 44.236 574.92 44.072 574.932 43.888C574.944 43.7 574.95 43.482 574.95 43.234V37.36H576.222V43.234C576.222 43.49 576.22 43.718 576.216 43.918C576.216 44.118 576.196 44.306 576.156 44.482C576.12 44.658 576.048 44.84 575.94 45.028C575.712 45.424 575.412 45.714 575.04 45.898C574.668 46.082 574.258 46.174 573.81 46.174ZM580.255 46.18C579.775 46.18 579.373 46.092 579.049 45.916C578.725 45.736 578.479 45.5 578.311 45.208C578.147 44.912 578.065 44.588 578.065 44.236C578.065 43.908 578.123 43.62 578.239 43.372C578.355 43.124 578.527 42.914 578.755 42.742C578.983 42.566 579.263 42.424 579.595 42.316C579.883 42.232 580.209 42.158 580.573 42.094C580.937 42.03 581.319 41.97 581.719 41.914C582.123 41.858 582.523 41.802 582.919 41.746L582.463 41.998C582.471 41.49 582.363 41.114 582.139 40.87C581.919 40.622 581.539 40.498 580.999 40.498C580.659 40.498 580.347 40.578 580.063 40.738C579.779 40.894 579.581 41.154 579.469 41.518L578.299 41.158C578.459 40.602 578.763 40.16 579.211 39.832C579.663 39.504 580.263 39.34 581.011 39.34C581.591 39.34 582.095 39.44 582.523 39.64C582.955 39.836 583.271 40.148 583.471 40.576C583.575 40.788 583.639 41.012 583.663 41.248C583.687 41.484 583.699 41.738 583.699 42.01V46H582.589V44.518L582.805 44.71C582.537 45.206 582.195 45.576 581.779 45.82C581.367 46.06 580.859 46.18 580.255 46.18ZM580.477 45.154C580.833 45.154 581.139 45.092 581.395 44.968C581.651 44.84 581.857 44.678 582.013 44.482C582.169 44.286 582.271 44.082 582.319 43.87C582.387 43.678 582.425 43.462 582.433 43.222C582.445 42.982 582.451 42.79 582.451 42.646L582.859 42.796C582.463 42.856 582.103 42.91 581.779 42.958C581.455 43.006 581.161 43.054 580.897 43.102C580.637 43.146 580.405 43.2 580.201 43.264C580.029 43.324 579.875 43.396 579.739 43.48C579.607 43.564 579.501 43.666 579.421 43.786C579.345 43.906 579.307 44.052 579.307 44.224C579.307 44.392 579.349 44.548 579.433 44.692C579.517 44.832 579.645 44.944 579.817 45.028C579.989 45.112 580.209 45.154 580.477 45.154ZM590.205 46V42.814C590.205 42.562 590.183 42.304 590.139 42.04C590.099 41.772 590.019 41.524 589.899 41.296C589.783 41.068 589.617 40.884 589.401 40.744C589.189 40.604 588.911 40.534 588.567 40.534C588.343 40.534 588.131 40.572 587.931 40.648C587.731 40.72 587.555 40.838 587.403 41.002C587.255 41.166 587.137 41.382 587.049 41.65C586.965 41.918 586.923 42.244 586.923 42.628L586.143 42.334C586.143 41.746 586.253 41.228 586.473 40.78C586.693 40.328 587.009 39.976 587.421 39.724C587.833 39.472 588.331 39.346 588.915 39.346C589.363 39.346 589.739 39.418 590.043 39.562C590.347 39.706 590.593 39.896 590.781 40.132C590.973 40.364 591.119 40.618 591.219 40.894C591.319 41.17 591.387 41.44 591.423 41.704C591.459 41.968 591.477 42.2 591.477 42.4V46H590.205ZM585.651 46V39.52H586.773V41.392H586.923V46H585.651ZM597.748 46V38.74L596.122 39.73V38.332L597.748 37.36H599.026V46H597.748ZM604.717 46.18C604.129 46.18 603.609 46.052 603.157 45.796C602.705 45.536 602.349 45.18 602.089 44.728C601.833 44.276 601.705 43.756 601.705 43.168V40.192C601.705 39.604 601.833 39.084 602.089 38.632C602.349 38.18 602.705 37.826 603.157 37.57C603.609 37.31 604.129 37.18 604.717 37.18C605.305 37.18 605.825 37.31 606.277 37.57C606.729 37.826 607.083 38.18 607.339 38.632C607.599 39.084 607.729 39.604 607.729 40.192V43.168C607.729 43.756 607.599 44.276 607.339 44.728C607.083 45.18 606.729 45.536 606.277 45.796C605.825 46.052 605.305 46.18 604.717 46.18ZM604.717 44.98C605.037 44.98 605.327 44.904 605.587 44.752C605.851 44.596 606.061 44.388 606.217 44.128C606.373 43.864 606.451 43.57 606.451 43.246V40.102C606.451 39.782 606.373 39.492 606.217 39.232C606.061 38.968 605.851 38.76 605.587 38.608C605.327 38.452 605.037 38.374 604.717 38.374C604.397 38.374 604.105 38.452 603.841 38.608C603.581 38.76 603.373 38.968 603.217 39.232C603.061 39.492 602.983 39.782 602.983 40.102V43.246C602.983 43.57 603.061 43.864 603.217 44.128C603.373 44.388 603.581 44.596 603.841 44.752C604.105 44.904 604.397 44.98 604.717 44.98ZM612.486 42.718V41.71H616.086V42.718H612.486ZM622.492 46.174C621.86 46.174 621.328 46.006 620.896 45.67C620.468 45.334 620.172 44.882 620.008 44.314L621.25 44.02C621.306 44.288 621.448 44.518 621.676 44.71C621.908 44.898 622.166 44.992 622.45 44.992C622.638 44.992 622.834 44.944 623.038 44.848C623.242 44.752 623.394 44.596 623.494 44.38C623.562 44.236 623.602 44.072 623.614 43.888C623.626 43.7 623.632 43.482 623.632 43.234V37.36H624.904V43.234C624.904 43.49 624.902 43.718 624.898 43.918C624.898 44.118 624.878 44.306 624.838 44.482C624.802 44.658 624.73 44.84 624.622 45.028C624.394 45.424 624.094 45.714 623.722 45.898C623.35 46.082 622.94 46.174 622.492 46.174ZM628.937 46.18C628.457 46.18 628.055 46.092 627.731 45.916C627.407 45.736 627.161 45.5 626.993 45.208C626.829 44.912 626.747 44.588 626.747 44.236C626.747 43.908 626.805 43.62 626.921 43.372C627.037 43.124 627.209 42.914 627.437 42.742C627.665 42.566 627.945 42.424 628.277 42.316C628.565 42.232 628.891 42.158 629.255 42.094C629.619 42.03 630.001 41.97 630.401 41.914C630.805 41.858 631.205 41.802 631.601 41.746L631.145 41.998C631.153 41.49 631.045 41.114 630.821 40.87C630.601 40.622 630.221 40.498 629.681 40.498C629.341 40.498 629.029 40.578 628.745 40.738C628.461 40.894 628.263 41.154 628.151 41.518L626.981 41.158C627.141 40.602 627.445 40.16 627.893 39.832C628.345 39.504 628.945 39.34 629.693 39.34C630.273 39.34 630.777 39.44 631.205 39.64C631.637 39.836 631.953 40.148 632.153 40.576C632.257 40.788 632.321 41.012 632.345 41.248C632.369 41.484 632.381 41.738 632.381 42.01V46H631.271V44.518L631.487 44.71C631.219 45.206 630.877 45.576 630.461 45.82C630.049 46.06 629.541 46.18 628.937 46.18ZM629.159 45.154C629.515 45.154 629.821 45.092 630.077 44.968C630.333 44.84 630.539 44.678 630.695 44.482C630.851 44.286 630.953 44.082 631.001 43.87C631.069 43.678 631.107 43.462 631.115 43.222C631.127 42.982 631.133 42.79 631.133 42.646L631.541 42.796C631.145 42.856 630.785 42.91 630.461 42.958C630.137 43.006 629.843 43.054 629.579 43.102C629.319 43.146 629.087 43.2 628.883 43.264C628.711 43.324 628.557 43.396 628.421 43.48C628.289 43.564 628.183 43.666 628.103 43.786C628.027 43.906 627.989 44.052 627.989 44.224C627.989 44.392 628.031 44.548 628.115 44.692C628.199 44.832 628.327 44.944 628.499 45.028C628.671 45.112 628.891 45.154 629.159 45.154ZM638.887 46V42.814C638.887 42.562 638.865 42.304 638.821 42.04C638.781 41.772 638.701 41.524 638.581 41.296C638.465 41.068 638.299 40.884 638.083 40.744C637.871 40.604 637.593 40.534 637.249 40.534C637.025 40.534 636.813 40.572 636.613 40.648C636.413 40.72 636.237 40.838 636.085 41.002C635.937 41.166 635.819 41.382 635.731 41.65C635.647 41.918 635.605 42.244 635.605 42.628L634.825 42.334C634.825 41.746 634.935 41.228 635.155 40.78C635.375 40.328 635.691 39.976 636.103 39.724C636.515 39.472 637.013 39.346 637.597 39.346C638.045 39.346 638.421 39.418 638.725 39.562C639.029 39.706 639.275 39.896 639.463 40.132C639.655 40.364 639.801 40.618 639.901 40.894C640.001 41.17 640.069 41.44 640.105 41.704C640.141 41.968 640.159 42.2 640.159 42.4V46H638.887ZM634.333 46V39.52H635.455V41.392H635.605V46H634.333ZM646.43 46V38.74L644.804 39.73V38.332L646.43 37.36H647.708V46H646.43ZM653.357 46.18C652.797 46.18 652.293 46.048 651.845 45.784C651.397 45.516 651.041 45.15 650.777 44.686C650.517 44.222 650.387 43.694 650.387 43.102V40.348C650.387 39.72 650.517 39.168 650.777 38.692C651.041 38.216 651.405 37.846 651.869 37.582C652.337 37.318 652.875 37.186 653.483 37.186C653.939 37.186 654.367 37.272 654.767 37.444C655.167 37.616 655.513 37.872 655.805 38.212L654.887 39.07C654.723 38.858 654.517 38.69 654.269 38.566C654.025 38.438 653.763 38.374 653.483 38.374C653.123 38.374 652.807 38.46 652.535 38.632C652.263 38.8 652.049 39.022 651.893 39.298C651.741 39.574 651.665 39.87 651.665 40.186V41.77L651.419 41.494C651.667 41.17 651.975 40.914 652.343 40.726C652.711 40.538 653.105 40.444 653.525 40.444C654.061 40.444 654.539 40.57 654.959 40.822C655.383 41.07 655.715 41.408 655.955 41.836C656.199 42.264 656.321 42.746 656.321 43.282C656.321 43.822 656.185 44.312 655.913 44.752C655.645 45.188 655.285 45.536 654.833 45.796C654.385 46.052 653.893 46.18 653.357 46.18ZM653.357 44.974C653.669 44.974 653.953 44.898 654.209 44.746C654.465 44.594 654.669 44.39 654.821 44.134C654.973 43.878 655.049 43.594 655.049 43.282C655.049 42.97 654.973 42.686 654.821 42.43C654.673 42.174 654.471 41.97 654.215 41.818C653.959 41.666 653.675 41.59 653.363 41.59C653.051 41.59 652.765 41.666 652.505 41.818C652.249 41.97 652.045 42.174 651.893 42.43C651.741 42.686 651.665 42.97 651.665 43.282C651.665 43.59 651.741 43.872 651.893 44.128C652.045 44.384 652.249 44.59 652.505 44.746C652.761 44.898 653.045 44.974 653.357 44.974Z" fill="#1A202C"/>
<path d="M665 39L669 43L673 39" stroke="#1A202C" stroke-width="1.5" stroke-linecap="round" stroke-linejoin="round"/>
<rect x="360" y="39" width="12" height="4" rx="2" fill="#194BFB"/>
<path d="M380.96 46V37.36H382.214V46H380.96ZM388.964 46V42.814C388.964 42.562 388.942 42.304 388.898 42.04C388.858 41.772 388.778 41.524 388.658 41.296C388.542 41.068 388.376 40.884 388.16 40.744C387.948 40.604 387.67 40.534 387.326 40.534C387.102 40.534 386.89 40.572 386.69 40.648C386.49 40.72 386.314 40.838 386.162 41.002C386.014 41.166 385.896 41.382 385.808 41.65C385.724 41.918 385.682 42.244 385.682 42.628L384.902 42.334C384.902 41.746 385.012 41.228 385.232 40.78C385.452 40.328 385.768 39.976 386.18 39.724C386.592 39.472 387.09 39.346 387.674 39.346C388.122 39.346 388.498 39.418 388.802 39.562C389.106 39.706 389.352 39.896 389.54 40.132C389.732 40.364 389.878 40.618 389.978 40.894C390.078 41.17 390.146 41.44 390.182 41.704C390.218 41.968 390.236 42.2 390.236 42.4V46H388.964ZM384.41 46V39.52H385.532V41.392H385.682V46H384.41ZM394.889 46.18C394.225 46.18 393.661 46.032 393.197 45.736C392.733 45.44 392.377 45.034 392.129 44.518C391.885 44.002 391.761 43.416 391.757 42.76C391.761 42.092 391.889 41.502 392.141 40.99C392.393 40.474 392.753 40.07 393.221 39.778C393.689 39.486 394.251 39.34 394.907 39.34C395.615 39.34 396.219 39.516 396.719 39.868C397.223 40.22 397.555 40.702 397.715 41.314L396.467 41.674C396.343 41.31 396.139 41.028 395.855 40.828C395.575 40.624 395.253 40.522 394.889 40.522C394.477 40.522 394.139 40.62 393.875 40.816C393.611 41.008 393.415 41.272 393.287 41.608C393.159 41.944 393.093 42.328 393.089 42.76C393.093 43.428 393.245 43.968 393.545 44.38C393.849 44.792 394.297 44.998 394.889 44.998C395.293 44.998 395.619 44.906 395.867 44.722C396.119 44.534 396.311 44.266 396.443 43.918L397.715 44.218C397.503 44.85 397.153 45.336 396.665 45.676C396.177 46.012 395.585 46.18 394.889 46.18ZM401.975 46.18C401.327 46.18 400.765 46.034 400.289 45.742C399.813 45.45 399.445 45.048 399.185 44.536C398.929 44.02 398.801 43.426 398.801 42.754C398.801 42.078 398.933 41.484 399.197 40.972C399.461 40.456 399.831 40.056 400.307 39.772C400.783 39.484 401.339 39.34 401.975 39.34C402.623 39.34 403.185 39.486 403.661 39.778C404.137 40.07 404.505 40.472 404.765 40.984C405.025 41.496 405.155 42.086 405.155 42.754C405.155 43.43 405.023 44.026 404.759 44.542C404.499 45.054 404.131 45.456 403.655 45.748C403.179 46.036 402.619 46.18 401.975 46.18ZM401.975 44.998C402.595 44.998 403.057 44.79 403.361 44.374C403.669 43.954 403.823 43.414 403.823 42.754C403.823 42.078 403.667 41.538 403.355 41.134C403.047 40.726 402.587 40.522 401.975 40.522C401.555 40.522 401.209 40.618 400.937 40.81C400.665 40.998 400.463 41.26 400.331 41.596C400.199 41.928 400.133 42.314 400.133 42.754C400.133 43.434 400.289 43.978 400.601 44.386C400.913 44.794 401.371 44.998 401.975 44.998ZM414.638 46L414.644 41.962C414.644 41.494 414.524 41.13 414.284 40.87C414.044 40.606 413.728 40.474 413.336 40.474C413.096 40.474 412.876 40.53 412.676 40.642C412.48 40.75 412.32 40.914 412.196 41.134C412.076 41.35 412.016 41.622 412.016 41.95L411.41 41.644C411.402 41.188 411.498 40.788 411.698 40.444C411.902 40.1 412.178 39.834 412.526 39.646C412.874 39.454 413.264 39.358 413.696 39.358C414.396 39.358 414.938 39.568 415.322 39.988C415.706 40.408 415.898 40.966 415.898 41.662L415.892 46H414.638ZM406.868 46V39.52H407.984V41.392H408.128V46H406.868ZM410.756 46L410.762 41.986C410.762 41.514 410.642 41.144 410.402 40.876C410.166 40.608 409.848 40.474 409.448 40.474C409.052 40.474 408.732 40.61 408.488 40.882C408.248 41.154 408.128 41.51 408.128 41.95L407.528 41.566C407.528 41.142 407.63 40.764 407.834 40.432C408.038 40.1 408.314 39.838 408.662 39.646C409.01 39.454 409.404 39.358 409.844 39.358C410.304 39.358 410.696 39.456 411.02 39.652C411.344 39.844 411.59 40.114 411.758 40.462C411.93 40.81 412.016 41.214 412.016 41.674L412.01 46H410.756ZM420.648 46.18C420.004 46.18 419.438 46.04 418.95 45.76C418.466 45.476 418.088 45.082 417.816 44.578C417.548 44.07 417.414 43.482 417.414 42.814C417.414 42.106 417.546 41.492 417.81 40.972C418.078 40.452 418.45 40.05 418.926 39.766C419.402 39.482 419.956 39.34 420.588 39.34C421.248 39.34 421.81 39.494 422.274 39.802C422.738 40.106 423.084 40.54 423.312 41.104C423.544 41.668 423.636 42.338 423.588 43.114H422.334V42.658C422.326 41.906 422.182 41.35 421.902 40.99C421.626 40.63 421.204 40.45 420.636 40.45C420.008 40.45 419.536 40.648 419.22 41.044C418.904 41.44 418.746 42.012 418.746 42.76C418.746 43.472 418.904 44.024 419.22 44.416C419.536 44.804 419.992 44.998 420.588 44.998C420.98 44.998 421.318 44.91 421.602 44.734C421.89 44.554 422.114 44.298 422.274 43.966L423.504 44.356C423.252 44.936 422.87 45.386 422.358 45.706C421.846 46.022 421.276 46.18 420.648 46.18ZM418.338 43.114V42.136H422.964V43.114H418.338Z" fill="#1A202C"/>
<path d="M26.346 96V88.344L24.72 89.322V88.332L26.346 87.36H27.24V96H26.346ZM32.7358 96.18C32.2038 96.18 31.7238 96.056 31.2958 95.808C30.8718 95.56 30.5358 95.224 30.2878 94.8C30.0398 94.372 29.9158 93.892 29.9158 93.36V90C29.9158 89.468 30.0398 88.99 30.2878 88.566C30.5358 88.138 30.8718 87.8 31.2958 87.552C31.7238 87.304 32.2038 87.18 32.7358 87.18C33.2678 87.18 33.7458 87.304 34.1698 87.552C34.5978 87.8 34.9358 88.138 35.1838 88.566C35.4318 88.99 35.5558 89.468 35.5558 90V93.36C35.5558 93.892 35.4318 94.372 35.1838 94.8C34.9358 95.224 34.5978 95.56 34.1698 95.808C33.7458 96.056 33.2678 96.18 32.7358 96.18ZM32.7358 95.328C33.0918 95.328 33.4158 95.242 33.7078 95.07C33.9998 94.894 34.2318 94.66 34.4038 94.368C34.5758 94.076 34.6618 93.754 34.6618 93.402V89.958C34.6618 89.602 34.5758 89.278 34.4038 88.986C34.2318 88.694 33.9998 88.462 33.7078 88.29C33.4158 88.114 33.0918 88.026 32.7358 88.026C32.3798 88.026 32.0558 88.114 31.7638 88.29C31.4718 88.462 31.2398 88.694 31.0678 88.986C30.8958 89.278 30.8098 89.602 30.8098 89.958V93.402C30.8098 93.754 30.8958 94.076 31.0678 94.368C31.2398 94.66 31.4718 94.894 31.7638 95.07C32.0558 95.242 32.3798 95.328 32.7358 95.328ZM37.634 96L37.64 87.36H38.528V92.64L41.42 89.52H42.596L39.56 92.76L42.992 96H41.708L38.528 92.88V96H37.634Z" fill="#718096"/>
<path d="M25.302 138L28.482 130.218H24.48V129.36H29.424V130.218L26.25 138H25.302ZM31.2574 138L31.2634 129.36H32.1514V134.64L35.0434 131.52H36.2194L33.1834 134.76L36.6154 138H35.3314L32.1514 134.88V138H31.2574Z" fill="#718096"/>
<path d="M27.39 180.18C26.942 180.18 26.528 180.088 26.148 179.904C25.768 179.72 25.444 179.466 25.176 179.142C24.908 178.818 24.716 178.446 24.6 178.026L25.446 177.798C25.522 178.11 25.66 178.38 25.86 178.608C26.06 178.832 26.294 179.006 26.562 179.13C26.834 179.254 27.118 179.316 27.414 179.316C27.798 179.316 28.142 179.224 28.446 179.04C28.754 178.852 28.998 178.604 29.178 178.296C29.358 177.988 29.448 177.65 29.448 177.282C29.448 176.902 29.354 176.56 29.166 176.256C28.978 175.948 28.73 175.704 28.422 175.524C28.114 175.344 27.778 175.254 27.414 175.254C27.006 175.254 26.654 175.344 26.358 175.524C26.062 175.7 25.826 175.922 25.65 176.19L24.846 175.854L25.11 171.36H29.724V172.206H25.5L25.938 171.792L25.704 175.626L25.482 175.332C25.73 175.048 26.03 174.826 26.382 174.666C26.734 174.506 27.104 174.426 27.492 174.426C28.024 174.426 28.504 174.554 28.932 174.81C29.36 175.062 29.7 175.404 29.952 175.836C30.204 176.268 30.33 176.75 30.33 177.282C30.33 177.81 30.196 178.294 29.928 178.734C29.66 179.17 29.304 179.52 28.86 179.784C28.416 180.048 27.926 180.18 27.39 180.18ZM32.1598 180L32.1658 171.36H33.0538V176.64L35.9458 173.52H37.1218L34.0858 176.76L37.5178 180H36.2338L33.0538 176.88V180H32.1598Z" fill="#718096"/>
<path d="M27.162 222.174C26.734 222.174 26.34 222.098 25.98 221.946C25.62 221.794 25.31 221.578 25.05 221.298C24.79 221.014 24.6 220.676 24.48 220.284L25.32 220.032C25.464 220.46 25.7 220.784 26.028 221.004C26.36 221.224 26.734 221.33 27.15 221.322C27.534 221.314 27.864 221.228 28.14 221.064C28.42 220.9 28.634 220.672 28.782 220.38C28.93 220.088 29.004 219.75 29.004 219.366C29.004 218.778 28.832 218.306 28.488 217.95C28.148 217.59 27.698 217.41 27.138 217.41C26.982 217.41 26.818 217.432 26.646 217.476C26.474 217.516 26.314 217.574 26.166 217.65L25.722 216.948L29.082 213.846L29.226 214.206H24.822V213.36H29.814V214.218L26.886 217.014L26.874 216.666C27.474 216.59 28.002 216.658 28.458 216.87C28.914 217.082 29.27 217.406 29.526 217.842C29.786 218.274 29.916 218.782 29.916 219.366C29.916 219.918 29.796 220.406 29.556 220.83C29.32 221.25 28.994 221.58 28.578 221.82C28.162 222.056 27.69 222.174 27.162 222.174ZM31.8668 222L31.8728 213.36H32.7608V218.64L35.6528 215.52H36.8288L33.7928 218.76L37.2248 222H35.9408L32.7608 218.88V222H31.8668Z" fill="#718096"/>
<path d="M27.66 264.18C27.128 264.18 26.648 264.056 26.22 263.808C25.796 263.56 25.46 263.224 25.212 262.8C24.964 262.372 24.84 261.892 24.84 261.36V258C24.84 257.468 24.964 256.99 25.212 256.566C25.46 256.138 25.796 255.8 26.22 255.552C26.648 255.304 27.128 255.18 27.66 255.18C28.192 255.18 28.67 255.304 29.094 255.552C29.522 255.8 29.86 256.138 30.108 256.566C30.356 256.99 30.48 257.468 30.48 258V261.36C30.48 261.892 30.356 262.372 30.108 262.8C29.86 263.224 29.522 263.56 29.094 263.808C28.67 264.056 28.192 264.18 27.66 264.18ZM27.66 263.328C28.016 263.328 28.34 263.242 28.632 263.07C28.924 262.894 29.156 262.66 29.328 262.368C29.5 262.076 29.586 261.754 29.586 261.402V257.958C29.586 257.602 29.5 257.278 29.328 256.986C29.156 256.694 28.924 256.462 28.632 256.29C28.34 256.114 28.016 256.026 27.66 256.026C27.304 256.026 26.98 256.114 26.688 256.29C26.396 256.462 26.164 256.694 25.992 256.986C25.82 257.278 25.734 257.602 25.734 257.958V261.402C25.734 261.754 25.82 262.076 25.992 262.368C26.164 262.66 26.396 262.894 26.688 263.07C26.98 263.242 27.304 263.328 27.66 263.328ZM32.5582 264L32.5642 255.36H33.4522V260.64L36.3442 257.52H37.5202L34.4842 260.76L37.9162 264H36.6322L33.4522 260.88V264H32.5582Z" fill="#718096"/>
<path d="M69.316 295.174C68.74 295.174 68.246 295.014 67.834 294.694C67.422 294.374 67.144 293.946 67 293.41L67.882 293.2C67.954 293.516 68.12 293.784 68.38 294.004C68.644 294.22 68.954 294.328 69.31 294.328C69.534 294.328 69.76 294.274 69.988 294.166C70.22 294.058 70.402 293.88 70.534 293.632C70.622 293.46 70.672 293.274 70.684 293.074C70.7 292.87 70.708 292.626 70.708 292.342V286.36H71.596V292.342C71.596 292.582 71.594 292.8 71.59 292.996C71.586 293.188 71.564 293.374 71.524 293.554C71.488 293.73 71.418 293.908 71.314 294.088C71.106 294.452 70.826 294.724 70.474 294.904C70.126 295.084 69.74 295.174 69.316 295.174ZM75.6604 295.18C75.1724 295.18 74.7624 295.092 74.4304 294.916C74.1024 294.74 73.8564 294.506 73.6924 294.214C73.5284 293.922 73.4464 293.604 73.4464 293.26C73.4464 292.908 73.5164 292.608 73.6564 292.36C73.8004 292.108 73.9944 291.902 74.2384 291.742C74.4864 291.582 74.7724 291.46 75.0964 291.376C75.4244 291.296 75.7864 291.226 76.1824 291.166C76.5824 291.102 76.9724 291.048 77.3524 291.004C77.7364 290.956 78.0724 290.91 78.3604 290.866L78.0484 291.058C78.0604 290.418 77.9364 289.944 77.6764 289.636C77.4164 289.328 76.9644 289.174 76.3204 289.174C75.8764 289.174 75.5004 289.274 75.1924 289.474C74.8884 289.674 74.6744 289.99 74.5504 290.422L73.6924 290.17C73.8404 289.59 74.1384 289.14 74.5864 288.82C75.0344 288.5 75.6164 288.34 76.3324 288.34C76.9244 288.34 77.4264 288.452 77.8384 288.676C78.2544 288.896 78.5484 289.216 78.7204 289.636C78.8004 289.824 78.8524 290.034 78.8764 290.266C78.9004 290.498 78.9124 290.734 78.9124 290.974V295H78.1264V293.374L78.3544 293.47C78.1344 294.026 77.7924 294.45 77.3284 294.742C76.8644 295.034 76.3084 295.18 75.6604 295.18ZM75.7624 294.418C76.1744 294.418 76.5344 294.344 76.8424 294.196C77.1504 294.048 77.3984 293.846 77.5864 293.59C77.7744 293.33 77.8964 293.038 77.9524 292.714C78.0004 292.506 78.0264 292.278 78.0304 292.03C78.0344 291.778 78.0364 291.59 78.0364 291.466L78.3724 291.64C78.0724 291.68 77.7464 291.72 77.3944 291.76C77.0464 291.8 76.7024 291.846 76.3624 291.898C76.0264 291.95 75.7224 292.012 75.4504 292.084C75.2664 292.136 75.0884 292.21 74.9164 292.306C74.7444 292.398 74.6024 292.522 74.4904 292.678C74.3824 292.834 74.3284 293.028 74.3284 293.26C74.3284 293.448 74.3744 293.63 74.4664 293.806C74.5624 293.982 74.7144 294.128 74.9224 294.244C75.1344 294.36 75.4144 294.418 75.7624 294.418ZM85.5544 295V291.694C85.5544 291.334 85.5204 291.004 85.4524 290.704C85.3844 290.4 85.2744 290.136 85.1224 289.912C84.9744 289.684 84.7804 289.508 84.5404 289.384C84.3044 289.26 84.0164 289.198 83.6764 289.198C83.3644 289.198 83.0884 289.252 82.8484 289.36C82.6124 289.468 82.4124 289.624 82.2484 289.828C82.0884 290.028 81.9664 290.272 81.8824 290.56C81.7984 290.848 81.7564 291.176 81.7564 291.544L81.1324 291.406C81.1324 290.742 81.2484 290.184 81.4804 289.732C81.7124 289.28 82.0324 288.938 82.4404 288.706C82.8484 288.474 83.3164 288.358 83.8444 288.358C84.2324 288.358 84.5704 288.418 84.8584 288.538C85.1504 288.658 85.3964 288.82 85.5964 289.024C85.8004 289.228 85.9644 289.462 86.0884 289.726C86.2124 289.986 86.3024 290.264 86.3584 290.56C86.4144 290.852 86.4424 291.144 86.4424 291.436V295H85.5544ZM80.8684 295V288.52H81.6664V290.116H81.7564V295H80.8684ZM92.7077 295V287.344L91.0817 288.322V287.332L92.7077 286.36H93.6017V295H92.7077ZM99.0975 295.18C98.5655 295.18 98.0855 295.056 97.6575 294.808C97.2335 294.56 96.8975 294.224 96.6495 293.8C96.4015 293.372 96.2775 292.892 96.2775 292.36V289C96.2775 288.468 96.4015 287.99 96.6495 287.566C96.8975 287.138 97.2335 286.8 97.6575 286.552C98.0855 286.304 98.5655 286.18 99.0975 286.18C99.6295 286.18 100.108 286.304 100.532 286.552C100.96 286.8 101.298 287.138 101.546 287.566C101.794 287.99 101.918 288.468 101.918 289V292.36C101.918 292.892 101.794 293.372 101.546 293.8C101.298 294.224 100.96 294.56 100.532 294.808C100.108 295.056 99.6295 295.18 99.0975 295.18ZM99.0975 294.328C99.4535 294.328 99.7775 294.242 100.07 294.07C100.362 293.894 100.594 293.66 100.766 293.368C100.938 293.076 101.024 292.754 101.024 292.402V288.958C101.024 288.602 100.938 288.278 100.766 287.986C100.594 287.694 100.362 287.462 100.07 287.29C99.7775 287.114 99.4535 287.026 99.0975 287.026C98.7415 287.026 98.4175 287.114 98.1255 287.29C97.8335 287.462 97.6015 287.694 97.4295 287.986C97.2575 288.278 97.1715 288.602 97.1715 288.958V292.402C97.1715 292.754 97.2575 293.076 97.4295 293.368C97.6015 293.66 97.8335 293.894 98.1255 294.07C98.4175 294.242 98.7415 294.328 99.0975 294.328Z" fill="#718096"/>
<path d="M166.983 295.174C166.407 295.174 165.913 295.014 165.501 294.694C165.089 294.374 164.811 293.946 164.667 293.41L165.549 293.2C165.621 293.516 165.787 293.784 166.047 294.004C166.311 294.22 166.621 294.328 166.977 294.328C167.201 294.328 167.427 294.274 167.655 294.166C167.887 294.058 168.069 293.88 168.201 293.632C168.289 293.46 168.339 293.274 168.351 293.074C168.367 292.87 168.375 292.626 168.375 292.342V286.36H169.263V292.342C169.263 292.582 169.261 292.8 169.257 292.996C169.253 293.188 169.231 293.374 169.191 293.554C169.155 293.73 169.085 293.908 168.981 294.088C168.773 294.452 168.493 294.724 168.141 294.904C167.793 295.084 167.407 295.174 166.983 295.174ZM173.327 295.18C172.839 295.18 172.429 295.092 172.097 294.916C171.769 294.74 171.523 294.506 171.359 294.214C171.195 293.922 171.113 293.604 171.113 293.26C171.113 292.908 171.183 292.608 171.323 292.36C171.467 292.108 171.661 291.902 171.905 291.742C172.153 291.582 172.439 291.46 172.763 291.376C173.091 291.296 173.453 291.226 173.849 291.166C174.249 291.102 174.639 291.048 175.019 291.004C175.403 290.956 175.739 290.91 176.027 290.866L175.715 291.058C175.727 290.418 175.603 289.944 175.343 289.636C175.083 289.328 174.631 289.174 173.987 289.174C173.543 289.174 173.167 289.274 172.859 289.474C172.555 289.674 172.341 289.99 172.217 290.422L171.359 290.17C171.507 289.59 171.805 289.14 172.253 288.82C172.701 288.5 173.283 288.34 173.999 288.34C174.591 288.34 175.093 288.452 175.505 288.676C175.921 288.896 176.215 289.216 176.387 289.636C176.467 289.824 176.519 290.034 176.543 290.266C176.567 290.498 176.579 290.734 176.579 290.974V295H175.793V293.374L176.021 293.47C175.801 294.026 175.459 294.45 174.995 294.742C174.531 295.034 173.975 295.18 173.327 295.18ZM173.429 294.418C173.841 294.418 174.201 294.344 174.509 294.196C174.817 294.048 175.065 293.846 175.253 293.59C175.441 293.33 175.563 293.038 175.619 292.714C175.667 292.506 175.693 292.278 175.697 292.03C175.701 291.778 175.703 291.59 175.703 291.466L176.039 291.64C175.739 291.68 175.413 291.72 175.061 291.76C174.713 291.8 174.369 291.846 174.029 291.898C173.693 291.95 173.389 292.012 173.117 292.084C172.933 292.136 172.755 292.21 172.583 292.306C172.411 292.398 172.269 292.522 172.157 292.678C172.049 292.834 171.995 293.028 171.995 293.26C171.995 293.448 172.041 293.63 172.133 293.806C172.229 293.982 172.381 294.128 172.589 294.244C172.801 294.36 173.081 294.418 173.429 294.418ZM183.221 295V291.694C183.221 291.334 183.187 291.004 183.119 290.704C183.051 290.4 182.941 290.136 182.789 289.912C182.641 289.684 182.447 289.508 182.207 289.384C181.971 289.26 181.683 289.198 181.343 289.198C181.031 289.198 180.755 289.252 180.515 289.36C180.279 289.468 180.079 289.624 179.915 289.828C179.755 290.028 179.633 290.272 179.549 290.56C179.465 290.848 179.423 291.176 179.423 291.544L178.799 291.406C178.799 290.742 178.915 290.184 179.147 289.732C179.379 289.28 179.699 288.938 180.107 288.706C180.515 288.474 180.983 288.358 181.511 288.358C181.899 288.358 182.237 288.418 182.525 288.538C182.817 288.658 183.063 288.82 183.263 289.024C183.467 289.228 183.631 289.462 183.755 289.726C183.879 289.986 183.969 290.264 184.025 290.56C184.081 290.852 184.109 291.144 184.109 291.436V295H183.221ZM178.535 295V288.52H179.333V290.116H179.423V295H178.535ZM190.374 295V287.344L188.748 288.322V287.332L190.374 286.36H191.268V295H190.374ZM195.45 295V287.344L193.824 288.322V287.332L195.45 286.36H196.344V295H195.45Z" fill="#718096"/>
<path d="M262.985 295.18C262.297 295.18 261.729 295.004 261.281 294.652C260.837 294.3 260.521 293.824 260.333 293.224L261.941 292.84C261.977 293.06 262.093 293.252 262.289 293.416C262.485 293.576 262.693 293.656 262.913 293.656C263.065 293.656 263.227 293.614 263.399 293.53C263.575 293.446 263.701 293.312 263.777 293.128C263.825 293.012 263.853 292.87 263.861 292.702C263.869 292.534 263.873 292.34 263.873 292.12V286.36H265.529V292.12C265.529 292.396 265.527 292.636 265.523 292.84C265.523 293.044 265.503 293.236 265.463 293.416C265.427 293.592 265.353 293.776 265.241 293.968C264.997 294.392 264.679 294.7 264.287 294.892C263.895 295.084 263.461 295.18 262.985 295.18ZM269.526 295.18C269.062 295.18 268.668 295.092 268.344 294.916C268.024 294.736 267.78 294.498 267.612 294.202C267.448 293.902 267.366 293.572 267.366 293.212C267.366 292.912 267.412 292.638 267.504 292.39C267.596 292.142 267.744 291.924 267.948 291.736C268.156 291.544 268.434 291.384 268.782 291.256C269.022 291.168 269.308 291.09 269.64 291.022C269.972 290.954 270.348 290.89 270.768 290.83C271.188 290.766 271.65 290.696 272.154 290.62L271.566 290.944C271.566 290.56 271.474 290.278 271.29 290.098C271.106 289.918 270.798 289.828 270.366 289.828C270.126 289.828 269.876 289.886 269.616 290.002C269.356 290.118 269.174 290.324 269.07 290.62L267.594 290.152C267.758 289.616 268.066 289.18 268.518 288.844C268.97 288.508 269.586 288.34 270.366 288.34C270.938 288.34 271.446 288.428 271.89 288.604C272.334 288.78 272.67 289.084 272.898 289.516C273.026 289.756 273.102 289.996 273.126 290.236C273.15 290.476 273.162 290.744 273.162 291.04V295H271.734V293.668L271.938 293.944C271.622 294.38 271.28 294.696 270.912 294.892C270.548 295.084 270.086 295.18 269.526 295.18ZM269.874 293.896C270.174 293.896 270.426 293.844 270.63 293.74C270.838 293.632 271.002 293.51 271.122 293.374C271.246 293.238 271.33 293.124 271.374 293.032C271.458 292.856 271.506 292.652 271.518 292.42C271.534 292.184 271.542 291.988 271.542 291.832L272.022 291.952C271.538 292.032 271.146 292.1 270.846 292.156C270.546 292.208 270.304 292.256 270.12 292.3C269.936 292.344 269.774 292.392 269.634 292.444C269.474 292.508 269.344 292.578 269.244 292.654C269.148 292.726 269.076 292.806 269.028 292.894C268.984 292.982 268.962 293.08 268.962 293.188C268.962 293.336 268.998 293.464 269.07 293.572C269.146 293.676 269.252 293.756 269.388 293.812C269.524 293.868 269.686 293.896 269.874 293.896ZM279.538 295V291.94C279.538 291.792 279.53 291.604 279.514 291.376C279.498 291.144 279.448 290.912 279.364 290.68C279.28 290.448 279.142 290.254 278.95 290.098C278.762 289.942 278.494 289.864 278.146 289.864C278.006 289.864 277.856 289.886 277.696 289.93C277.536 289.974 277.386 290.06 277.246 290.188C277.106 290.312 276.99 290.496 276.898 290.74C276.81 290.984 276.766 291.308 276.766 291.712L275.83 291.268C275.83 290.756 275.934 290.276 276.142 289.828C276.35 289.38 276.662 289.018 277.078 288.742C277.498 288.466 278.026 288.328 278.662 288.328C279.17 288.328 279.584 288.414 279.904 288.586C280.224 288.758 280.472 288.976 280.648 289.24C280.828 289.504 280.956 289.78 281.032 290.068C281.108 290.352 281.154 290.612 281.17 290.848C281.186 291.084 281.194 291.256 281.194 291.364V295H279.538ZM275.11 295V288.52H276.562V290.668H276.766V295H275.11ZM287.453 295V288.136L285.833 289.132V287.332L287.453 286.36H289.121V295H287.453ZM291.562 294.988V293.572L295.186 290.356C295.458 290.116 295.65 289.89 295.762 289.678C295.874 289.466 295.93 289.268 295.93 289.084C295.93 288.82 295.876 288.586 295.768 288.382C295.66 288.174 295.508 288.012 295.312 287.896C295.116 287.776 294.886 287.716 294.622 287.716C294.346 287.716 294.102 287.78 293.89 287.908C293.682 288.032 293.52 288.198 293.404 288.406C293.288 288.61 293.234 288.832 293.242 289.072H291.562C291.562 288.48 291.692 287.968 291.952 287.536C292.212 287.104 292.574 286.77 293.038 286.534C293.502 286.298 294.042 286.18 294.658 286.18C295.222 286.18 295.726 286.304 296.17 286.552C296.618 286.796 296.97 287.138 297.226 287.578C297.482 288.018 297.61 288.528 297.61 289.108C297.61 289.536 297.55 289.892 297.43 290.176C297.31 290.456 297.132 290.716 296.896 290.956C296.66 291.192 296.37 291.46 296.026 291.76L293.686 293.812L293.554 293.452H297.61V294.988H291.562Z" fill="#1A202C"/>
<path d="M362.316 295.174C361.74 295.174 361.246 295.014 360.834 294.694C360.422 294.374 360.144 293.946 360 293.41L360.882 293.2C360.954 293.516 361.12 293.784 361.38 294.004C361.644 294.22 361.954 294.328 362.31 294.328C362.534 294.328 362.76 294.274 362.988 294.166C363.22 294.058 363.402 293.88 363.534 293.632C363.622 293.46 363.672 293.274 363.684 293.074C363.7 292.87 363.708 292.626 363.708 292.342V286.36H364.596V292.342C364.596 292.582 364.594 292.8 364.59 292.996C364.586 293.188 364.564 293.374 364.524 293.554C364.488 293.73 364.418 293.908 364.314 294.088C364.106 294.452 363.826 294.724 363.474 294.904C363.126 295.084 362.74 295.174 362.316 295.174ZM368.66 295.18C368.172 295.18 367.762 295.092 367.43 294.916C367.102 294.74 366.856 294.506 366.692 294.214C366.528 293.922 366.446 293.604 366.446 293.26C366.446 292.908 366.516 292.608 366.656 292.36C366.8 292.108 366.994 291.902 367.238 291.742C367.486 291.582 367.772 291.46 368.096 291.376C368.424 291.296 368.786 291.226 369.182 291.166C369.582 291.102 369.972 291.048 370.352 291.004C370.736 290.956 371.072 290.91 371.36 290.866L371.048 291.058C371.06 290.418 370.936 289.944 370.676 289.636C370.416 289.328 369.964 289.174 369.32 289.174C368.876 289.174 368.5 289.274 368.192 289.474C367.888 289.674 367.674 289.99 367.55 290.422L366.692 290.17C366.84 289.59 367.138 289.14 367.586 288.82C368.034 288.5 368.616 288.34 369.332 288.34C369.924 288.34 370.426 288.452 370.838 288.676C371.254 288.896 371.548 289.216 371.72 289.636C371.8 289.824 371.852 290.034 371.876 290.266C371.9 290.498 371.912 290.734 371.912 290.974V295H371.126V293.374L371.354 293.47C371.134 294.026 370.792 294.45 370.328 294.742C369.864 295.034 369.308 295.18 368.66 295.18ZM368.762 294.418C369.174 294.418 369.534 294.344 369.842 294.196C370.15 294.048 370.398 293.846 370.586 293.59C370.774 293.33 370.896 293.038 370.952 292.714C371 292.506 371.026 292.278 371.03 292.03C371.034 291.778 371.036 291.59 371.036 291.466L371.372 291.64C371.072 291.68 370.746 291.72 370.394 291.76C370.046 291.8 369.702 291.846 369.362 291.898C369.026 291.95 368.722 292.012 368.45 292.084C368.266 292.136 368.088 292.21 367.916 292.306C367.744 292.398 367.602 292.522 367.49 292.678C367.382 292.834 367.328 293.028 367.328 293.26C367.328 293.448 367.374 293.63 367.466 293.806C367.562 293.982 367.714 294.128 367.922 294.244C368.134 294.36 368.414 294.418 368.762 294.418ZM378.554 295V291.694C378.554 291.334 378.52 291.004 378.452 290.704C378.384 290.4 378.274 290.136 378.122 289.912C377.974 289.684 377.78 289.508 377.54 289.384C377.304 289.26 377.016 289.198 376.676 289.198C376.364 289.198 376.088 289.252 375.848 289.36C375.612 289.468 375.412 289.624 375.248 289.828C375.088 290.028 374.966 290.272 374.882 290.56C374.798 290.848 374.756 291.176 374.756 291.544L374.132 291.406C374.132 290.742 374.248 290.184 374.48 289.732C374.712 289.28 375.032 288.938 375.44 288.706C375.848 288.474 376.316 288.358 376.844 288.358C377.232 288.358 377.57 288.418 377.858 288.538C378.15 288.658 378.396 288.82 378.596 289.024C378.8 289.228 378.964 289.462 379.088 289.726C379.212 289.986 379.302 290.264 379.358 290.56C379.414 290.852 379.442 291.144 379.442 291.436V295H378.554ZM373.868 295V288.52H374.666V290.116H374.756V295H373.868ZM385.708 295V287.344L384.082 288.322V287.332L385.708 286.36H386.602V295H385.708ZM391.6 295.174C391.172 295.174 390.778 295.098 390.418 294.946C390.058 294.794 389.748 294.578 389.488 294.298C389.228 294.014 389.038 293.676 388.918 293.284L389.758 293.032C389.902 293.46 390.138 293.784 390.466 294.004C390.798 294.224 391.172 294.33 391.588 294.322C391.972 294.314 392.302 294.228 392.578 294.064C392.858 293.9 393.072 293.672 393.22 293.38C393.368 293.088 393.442 292.75 393.442 292.366C393.442 291.778 393.27 291.306 392.926 290.95C392.586 290.59 392.136 290.41 391.576 290.41C391.42 290.41 391.256 290.432 391.084 290.476C390.912 290.516 390.752 290.574 390.604 290.65L390.16 289.948L393.52 286.846L393.664 287.206H389.26V286.36H394.252V287.218L391.324 290.014L391.312 289.666C391.912 289.59 392.44 289.658 392.896 289.87C393.352 290.082 393.708 290.406 393.964 290.842C394.224 291.274 394.354 291.782 394.354 292.366C394.354 292.918 394.234 293.406 393.994 293.83C393.758 294.25 393.432 294.58 393.016 294.82C392.6 295.056 392.128 295.174 391.6 295.174Z" fill="#718096"/>
<path d="M459.983 295.174C459.407 295.174 458.913 295.014 458.501 294.694C458.089 294.374 457.811 293.946 457.667 293.41L458.549 293.2C458.621 293.516 458.787 293.784 459.047 294.004C459.311 294.22 459.621 294.328 459.977 294.328C460.201 294.328 460.427 294.274 460.655 294.166C460.887 294.058 461.069 293.88 461.201 293.632C461.289 293.46 461.339 293.274 461.351 293.074C461.367 292.87 461.375 292.626 461.375 292.342V286.36H462.263V292.342C462.263 292.582 462.261 292.8 462.257 292.996C462.253 293.188 462.231 293.374 462.191 293.554C462.155 293.73 462.085 293.908 461.981 294.088C461.773 294.452 461.493 294.724 461.141 294.904C460.793 295.084 460.407 295.174 459.983 295.174ZM466.327 295.18C465.839 295.18 465.429 295.092 465.097 294.916C464.769 294.74 464.523 294.506 464.359 294.214C464.195 293.922 464.113 293.604 464.113 293.26C464.113 292.908 464.183 292.608 464.323 292.36C464.467 292.108 464.661 291.902 464.905 291.742C465.153 291.582 465.439 291.46 465.763 291.376C466.091 291.296 466.453 291.226 466.849 291.166C467.249 291.102 467.639 291.048 468.019 291.004C468.403 290.956 468.739 290.91 469.027 290.866L468.715 291.058C468.727 290.418 468.603 289.944 468.343 289.636C468.083 289.328 467.631 289.174 466.987 289.174C466.543 289.174 466.167 289.274 465.859 289.474C465.555 289.674 465.341 289.99 465.217 290.422L464.359 290.17C464.507 289.59 464.805 289.14 465.253 288.82C465.701 288.5 466.283 288.34 466.999 288.34C467.591 288.34 468.093 288.452 468.505 288.676C468.921 288.896 469.215 289.216 469.387 289.636C469.467 289.824 469.519 290.034 469.543 290.266C469.567 290.498 469.579 290.734 469.579 290.974V295H468.793V293.374L469.021 293.47C468.801 294.026 468.459 294.45 467.995 294.742C467.531 295.034 466.975 295.18 466.327 295.18ZM466.429 294.418C466.841 294.418 467.201 294.344 467.509 294.196C467.817 294.048 468.065 293.846 468.253 293.59C468.441 293.33 468.563 293.038 468.619 292.714C468.667 292.506 468.693 292.278 468.697 292.03C468.701 291.778 468.703 291.59 468.703 291.466L469.039 291.64C468.739 291.68 468.413 291.72 468.061 291.76C467.713 291.8 467.369 291.846 467.029 291.898C466.693 291.95 466.389 292.012 466.117 292.084C465.933 292.136 465.755 292.21 465.583 292.306C465.411 292.398 465.269 292.522 465.157 292.678C465.049 292.834 464.995 293.028 464.995 293.26C464.995 293.448 465.041 293.63 465.133 293.806C465.229 293.982 465.381 294.128 465.589 294.244C465.801 294.36 466.081 294.418 466.429 294.418ZM476.221 295V291.694C476.221 291.334 476.187 291.004 476.119 290.704C476.051 290.4 475.941 290.136 475.789 289.912C475.641 289.684 475.447 289.508 475.207 289.384C474.971 289.26 474.683 289.198 474.343 289.198C474.031 289.198 473.755 289.252 473.515 289.36C473.279 289.468 473.079 289.624 472.915 289.828C472.755 290.028 472.633 290.272 472.549 290.56C472.465 290.848 472.423 291.176 472.423 291.544L471.799 291.406C471.799 290.742 471.915 290.184 472.147 289.732C472.379 289.28 472.699 288.938 473.107 288.706C473.515 288.474 473.983 288.358 474.511 288.358C474.899 288.358 475.237 288.418 475.525 288.538C475.817 288.658 476.063 288.82 476.263 289.024C476.467 289.228 476.631 289.462 476.755 289.726C476.879 289.986 476.969 290.264 477.025 290.56C477.081 290.852 477.109 291.144 477.109 291.436V295H476.221ZM471.535 295V288.52H472.333V290.116H472.423V295H471.535ZM483.374 295V287.344L481.748 288.322V287.332L483.374 286.36H484.268V295H483.374ZM490.748 295V293.326H486.704V292.486L489.596 286.36H490.586L487.694 292.486H490.748V289.966H491.636V292.486H492.578V293.326H491.636V295H490.748Z" fill="#718096"/>
<path d="M557.649 295.174C557.073 295.174 556.579 295.014 556.167 294.694C555.755 294.374 555.477 293.946 555.333 293.41L556.215 293.2C556.287 293.516 556.453 293.784 556.713 294.004C556.977 294.22 557.287 294.328 557.643 294.328C557.867 294.328 558.093 294.274 558.321 294.166C558.553 294.058 558.735 293.88 558.867 293.632C558.955 293.46 559.005 293.274 559.017 293.074C559.033 292.87 559.041 292.626 559.041 292.342V286.36H559.929V292.342C559.929 292.582 559.927 292.8 559.923 292.996C559.919 293.188 559.897 293.374 559.857 293.554C559.821 293.73 559.751 293.908 559.647 294.088C559.439 294.452 559.159 294.724 558.807 294.904C558.459 295.084 558.073 295.174 557.649 295.174ZM563.994 295.18C563.506 295.18 563.096 295.092 562.764 294.916C562.436 294.74 562.19 294.506 562.026 294.214C561.862 293.922 561.78 293.604 561.78 293.26C561.78 292.908 561.85 292.608 561.99 292.36C562.134 292.108 562.328 291.902 562.572 291.742C562.82 291.582 563.106 291.46 563.43 291.376C563.758 291.296 564.12 291.226 564.516 291.166C564.916 291.102 565.306 291.048 565.686 291.004C566.07 290.956 566.406 290.91 566.694 290.866L566.382 291.058C566.394 290.418 566.27 289.944 566.01 289.636C565.75 289.328 565.298 289.174 564.654 289.174C564.21 289.174 563.834 289.274 563.526 289.474C563.222 289.674 563.008 289.99 562.884 290.422L562.026 290.17C562.174 289.59 562.472 289.14 562.92 288.82C563.368 288.5 563.95 288.34 564.666 288.34C565.258 288.34 565.76 288.452 566.172 288.676C566.588 288.896 566.882 289.216 567.054 289.636C567.134 289.824 567.186 290.034 567.21 290.266C567.234 290.498 567.246 290.734 567.246 290.974V295H566.46V293.374L566.688 293.47C566.468 294.026 566.126 294.45 565.662 294.742C565.198 295.034 564.642 295.18 563.994 295.18ZM564.096 294.418C564.508 294.418 564.868 294.344 565.176 294.196C565.484 294.048 565.732 293.846 565.92 293.59C566.108 293.33 566.23 293.038 566.286 292.714C566.334 292.506 566.36 292.278 566.364 292.03C566.368 291.778 566.37 291.59 566.37 291.466L566.706 291.64C566.406 291.68 566.08 291.72 565.728 291.76C565.38 291.8 565.036 291.846 564.696 291.898C564.36 291.95 564.056 292.012 563.784 292.084C563.6 292.136 563.422 292.21 563.25 292.306C563.078 292.398 562.936 292.522 562.824 292.678C562.716 292.834 562.662 293.028 562.662 293.26C562.662 293.448 562.708 293.63 562.8 293.806C562.896 293.982 563.048 294.128 563.256 294.244C563.468 294.36 563.748 294.418 564.096 294.418ZM573.888 295V291.694C573.888 291.334 573.854 291.004 573.786 290.704C573.718 290.4 573.608 290.136 573.456 289.912C573.308 289.684 573.114 289.508 572.874 289.384C572.638 289.26 572.35 289.198 572.01 289.198C571.698 289.198 571.422 289.252 571.182 289.36C570.946 289.468 570.746 289.624 570.582 289.828C570.422 290.028 570.3 290.272 570.216 290.56C570.132 290.848 570.09 291.176 570.09 291.544L569.466 291.406C569.466 290.742 569.582 290.184 569.814 289.732C570.046 289.28 570.366 288.938 570.774 288.706C571.182 288.474 571.65 288.358 572.178 288.358C572.566 288.358 572.904 288.418 573.192 288.538C573.484 288.658 573.73 288.82 573.93 289.024C574.134 289.228 574.298 289.462 574.422 289.726C574.546 289.986 574.636 290.264 574.692 290.56C574.748 290.852 574.776 291.144 574.776 291.436V295H573.888ZM569.202 295V288.52H570V290.116H570.09V295H569.202ZM581.041 295V287.344L579.415 288.322V287.332L581.041 286.36H581.935V295H581.041ZM587.161 295.18C586.713 295.18 586.299 295.088 585.919 294.904C585.539 294.72 585.215 294.466 584.947 294.142C584.679 293.818 584.487 293.446 584.371 293.026L585.217 292.798C585.293 293.11 585.431 293.38 585.631 293.608C585.831 293.832 586.065 294.006 586.333 294.13C586.605 294.254 586.889 294.316 587.185 294.316C587.569 294.316 587.913 294.224 588.217 294.04C588.525 293.852 588.769 293.604 588.949 293.296C589.129 292.988 589.219 292.65 589.219 292.282C589.219 291.902 589.125 291.56 588.937 291.256C588.749 290.948 588.501 290.704 588.193 290.524C587.885 290.344 587.549 290.254 587.185 290.254C586.777 290.254 586.425 290.344 586.129 290.524C585.833 290.7 585.597 290.922 585.421 291.19L584.617 290.854L584.881 286.36H589.495V287.206H585.271L585.709 286.792L585.475 290.626L585.253 290.332C585.501 290.048 585.801 289.826 586.153 289.666C586.505 289.506 586.875 289.426 587.263 289.426C587.795 289.426 588.275 289.554 588.703 289.81C589.131 290.062 589.471 290.404 589.723 290.836C589.975 291.268 590.101 291.75 590.101 292.282C590.101 292.81 589.967 293.294 589.699 293.734C589.431 294.17 589.075 294.52 588.631 294.784C588.187 295.048 587.697 295.18 587.161 295.18Z" fill="#718096"/>
<path d="M655.316 295.174C654.74 295.174 654.246 295.014 653.834 294.694C653.422 294.374 653.144 293.946 653 293.41L653.882 293.2C653.954 293.516 654.12 293.784 654.38 294.004C654.644 294.22 654.954 294.328 655.31 294.328C655.534 294.328 655.76 294.274 655.988 294.166C656.22 294.058 656.402 293.88 656.534 293.632C656.622 293.46 656.672 293.274 656.684 293.074C656.7 292.87 656.708 292.626 656.708 292.342V286.36H657.596V292.342C657.596 292.582 657.594 292.8 657.59 292.996C657.586 293.188 657.564 293.374 657.524 293.554C657.488 293.73 657.418 293.908 657.314 294.088C657.106 294.452 656.826 294.724 656.474 294.904C656.126 295.084 655.74 295.174 655.316 295.174ZM661.66 295.18C661.172 295.18 660.762 295.092 660.43 294.916C660.102 294.74 659.856 294.506 659.692 294.214C659.528 293.922 659.446 293.604 659.446 293.26C659.446 292.908 659.516 292.608 659.656 292.36C659.8 292.108 659.994 291.902 660.238 291.742C660.486 291.582 660.772 291.46 661.096 291.376C661.424 291.296 661.786 291.226 662.182 291.166C662.582 291.102 662.972 291.048 663.352 291.004C663.736 290.956 664.072 290.91 664.36 290.866L664.048 291.058C664.06 290.418 663.936 289.944 663.676 289.636C663.416 289.328 662.964 289.174 662.32 289.174C661.876 289.174 661.5 289.274 661.192 289.474C660.888 289.674 660.674 289.99 660.55 290.422L659.692 290.17C659.84 289.59 660.138 289.14 660.586 288.82C661.034 288.5 661.616 288.34 662.332 288.34C662.924 288.34 663.426 288.452 663.838 288.676C664.254 288.896 664.548 289.216 664.72 289.636C664.8 289.824 664.852 290.034 664.876 290.266C664.9 290.498 664.912 290.734 664.912 290.974V295H664.126V293.374L664.354 293.47C664.134 294.026 663.792 294.45 663.328 294.742C662.864 295.034 662.308 295.18 661.66 295.18ZM661.762 294.418C662.174 294.418 662.534 294.344 662.842 294.196C663.15 294.048 663.398 293.846 663.586 293.59C663.774 293.33 663.896 293.038 663.952 292.714C664 292.506 664.026 292.278 664.03 292.03C664.034 291.778 664.036 291.59 664.036 291.466L664.372 291.64C664.072 291.68 663.746 291.72 663.394 291.76C663.046 291.8 662.702 291.846 662.362 291.898C662.026 291.95 661.722 292.012 661.45 292.084C661.266 292.136 661.088 292.21 660.916 292.306C660.744 292.398 660.602 292.522 660.49 292.678C660.382 292.834 660.328 293.028 660.328 293.26C660.328 293.448 660.374 293.63 660.466 293.806C660.562 293.982 660.714 294.128 660.922 294.244C661.134 294.36 661.414 294.418 661.762 294.418ZM671.554 295V291.694C671.554 291.334 671.52 291.004 671.452 290.704C671.384 290.4 671.274 290.136 671.122 289.912C670.974 289.684 670.78 289.508 670.54 289.384C670.304 289.26 670.016 289.198 669.676 289.198C669.364 289.198 669.088 289.252 668.848 289.36C668.612 289.468 668.412 289.624 668.248 289.828C668.088 290.028 667.966 290.272 667.882 290.56C667.798 290.848 667.756 291.176 667.756 291.544L667.132 291.406C667.132 290.742 667.248 290.184 667.48 289.732C667.712 289.28 668.032 288.938 668.44 288.706C668.848 288.474 669.316 288.358 669.844 288.358C670.232 288.358 670.57 288.418 670.858 288.538C671.15 288.658 671.396 288.82 671.596 289.024C671.8 289.228 671.964 289.462 672.088 289.726C672.212 289.986 672.302 290.264 672.358 290.56C672.414 290.852 672.442 291.144 672.442 291.436V295H671.554ZM666.868 295V288.52H667.666V290.116H667.756V295H666.868ZM678.708 295V287.344L677.082 288.322V287.332L678.708 286.36H679.602V295H678.708ZM685.2 295.18C684.66 295.18 684.168 295.05 683.724 294.79C683.284 294.526 682.932 294.17 682.668 293.722C682.408 293.27 682.278 292.762 682.278 292.198V289.204C682.278 288.624 682.408 288.108 682.668 287.656C682.928 287.2 683.282 286.842 683.73 286.582C684.182 286.318 684.694 286.186 685.266 286.186C685.758 286.186 686.214 286.294 686.634 286.51C687.058 286.726 687.404 287.028 687.672 287.416L686.994 287.974C686.81 287.686 686.566 287.456 686.262 287.284C685.958 287.112 685.626 287.026 685.266 287.026C684.862 287.026 684.502 287.124 684.186 287.32C683.87 287.516 683.622 287.774 683.442 288.094C683.262 288.41 683.172 288.754 683.172 289.126V291.01L682.95 290.758C683.202 290.362 683.532 290.042 683.94 289.798C684.352 289.554 684.8 289.432 685.284 289.432C685.82 289.432 686.302 289.56 686.73 289.816C687.158 290.068 687.498 290.41 687.75 290.842C688.002 291.274 688.128 291.758 688.128 292.294C688.128 292.826 687.994 293.31 687.726 293.746C687.462 294.182 687.108 294.53 686.664 294.79C686.224 295.05 685.736 295.18 685.2 295.18ZM685.2 294.322C685.576 294.322 685.918 294.232 686.226 294.052C686.538 293.872 686.784 293.628 686.964 293.32C687.148 293.012 687.24 292.67 687.24 292.294C687.24 291.918 687.148 291.576 686.964 291.268C686.784 290.956 686.54 290.71 686.232 290.53C685.924 290.346 685.582 290.254 685.206 290.254C684.83 290.254 684.488 290.346 684.18 290.53C683.872 290.71 683.626 290.956 683.442 291.268C683.262 291.576 683.172 291.918 683.172 292.294C683.172 292.666 683.262 293.006 683.442 293.314C683.622 293.622 683.866 293.868 684.174 294.052C684.482 294.232 684.824 294.322 685.2 294.322Z" fill="#718096"/>
<rect x="449" y="39" width="12" height="4" rx="2" fill="#1A202C"/>
<path d="M469.84 46V37.36H475.36V38.542H471.094V40.966H474.64V42.148H471.094V44.818H475.36V46H469.84ZM476.481 46L478.905 42.724L476.535 39.52H478.023L479.637 41.746L481.233 39.52H482.721L480.351 42.724L482.781 46H481.287L479.637 43.702L477.975 46H476.481ZM487.182 46.18C486.562 46.18 486.042 46.03 485.622 45.73C485.202 45.426 484.884 45.016 484.668 44.5C484.452 43.984 484.344 43.402 484.344 42.754C484.344 42.106 484.45 41.524 484.662 41.008C484.878 40.492 485.194 40.086 485.61 39.79C486.03 39.49 486.546 39.34 487.158 39.34C487.766 39.34 488.29 39.49 488.73 39.79C489.174 40.086 489.516 40.492 489.756 41.008C489.996 41.52 490.116 42.102 490.116 42.754C490.116 43.402 489.996 43.986 489.756 44.506C489.52 45.022 489.182 45.43 488.742 45.73C488.306 46.03 487.786 46.18 487.182 46.18ZM484.134 48.88V39.52H485.25V44.182H485.394V48.88H484.134ZM487.008 45.046C487.408 45.046 487.738 44.944 487.998 44.74C488.262 44.536 488.458 44.262 488.586 43.918C488.718 43.57 488.784 43.182 488.784 42.754C488.784 42.33 488.718 41.946 488.586 41.602C488.458 41.258 488.26 40.984 487.992 40.78C487.724 40.576 487.382 40.474 486.966 40.474C486.574 40.474 486.25 40.57 485.994 40.762C485.742 40.954 485.554 41.222 485.43 41.566C485.31 41.91 485.25 42.306 485.25 42.754C485.25 43.202 485.31 43.598 485.43 43.942C485.55 44.286 485.74 44.556 486 44.752C486.26 44.948 486.596 45.046 487.008 45.046ZM494.715 46.18C494.071 46.18 493.505 46.04 493.017 45.76C492.533 45.476 492.155 45.082 491.883 44.578C491.615 44.07 491.481 43.482 491.481 42.814C491.481 42.106 491.613 41.492 491.877 40.972C492.145 40.452 492.517 40.05 492.993 39.766C493.469 39.482 494.023 39.34 494.655 39.34C495.315 39.34 495.877 39.494 496.341 39.802C496.805 40.106 497.151 40.54 497.379 41.104C497.611 41.668 497.703 42.338 497.655 43.114H496.401V42.658C496.393 41.906 496.249 41.35 495.969 40.99C495.693 40.63 495.271 40.45 494.703 40.45C494.075 40.45 493.603 40.648 493.287 41.044C492.971 41.44 492.813 42.012 492.813 42.76C492.813 43.472 492.971 44.024 493.287 44.416C493.603 44.804 494.059 44.998 494.655 44.998C495.047 44.998 495.385 44.91 495.669 44.734C495.957 44.554 496.181 44.298 496.341 43.966L497.571 44.356C497.319 44.936 496.937 45.386 496.425 45.706C495.913 46.022 495.343 46.18 494.715 46.18ZM492.405 43.114V42.136H497.031V43.114H492.405ZM503.773 46V42.814C503.773 42.562 503.751 42.304 503.707 42.04C503.667 41.772 503.587 41.524 503.467 41.296C503.351 41.068 503.185 40.884 502.969 40.744C502.757 40.604 502.479 40.534 502.135 40.534C501.911 40.534 501.699 40.572 501.499 40.648C501.299 40.72 501.123 40.838 500.971 41.002C500.823 41.166 500.705 41.382 500.617 41.65C500.533 41.918 500.491 42.244 500.491 42.628L499.711 42.334C499.711 41.746 499.821 41.228 500.041 40.78C500.261 40.328 500.577 39.976 500.989 39.724C501.401 39.472 501.899 39.346 502.483 39.346C502.931 39.346 503.307 39.418 503.611 39.562C503.915 39.706 504.161 39.896 504.349 40.132C504.541 40.364 504.687 40.618 504.787 40.894C504.887 41.17 504.955 41.44 504.991 41.704C505.027 41.968 505.045 42.2 505.045 42.4V46H503.773ZM499.219 46V39.52H500.341V41.392H500.491V46H499.219ZM509.486 46.174C508.698 46.174 508.056 46 507.56 45.652C507.064 45.304 506.76 44.814 506.648 44.182L507.932 43.984C508.012 44.32 508.196 44.586 508.484 44.782C508.776 44.974 509.138 45.07 509.57 45.07C509.962 45.07 510.268 44.99 510.488 44.83C510.712 44.67 510.824 44.45 510.824 44.17C510.824 44.006 510.784 43.874 510.704 43.774C510.628 43.67 510.466 43.572 510.218 43.48C509.97 43.388 509.592 43.274 509.084 43.138C508.528 42.994 508.086 42.84 507.758 42.676C507.434 42.508 507.202 42.314 507.062 42.094C506.926 41.87 506.858 41.6 506.858 41.284C506.858 40.892 506.962 40.55 507.17 40.258C507.378 39.966 507.67 39.74 508.046 39.58C508.426 39.42 508.87 39.34 509.378 39.34C509.874 39.34 510.316 39.418 510.704 39.574C511.092 39.73 511.406 39.952 511.646 40.24C511.886 40.524 512.03 40.858 512.078 41.242L510.794 41.476C510.75 41.164 510.604 40.918 510.356 40.738C510.108 40.558 509.786 40.46 509.39 40.444C509.01 40.428 508.702 40.492 508.466 40.636C508.23 40.776 508.112 40.97 508.112 41.218C508.112 41.362 508.156 41.484 508.244 41.584C508.336 41.684 508.512 41.78 508.772 41.872C509.032 41.964 509.416 42.074 509.924 42.202C510.468 42.342 510.9 42.498 511.22 42.67C511.54 42.838 511.768 43.04 511.904 43.276C512.044 43.508 512.114 43.79 512.114 44.122C512.114 44.762 511.88 45.264 511.412 45.628C510.948 45.992 510.306 46.174 509.486 46.174ZM516.716 46.18C516.072 46.18 515.506 46.04 515.018 45.76C514.534 45.476 514.156 45.082 513.884 44.578C513.616 44.07 513.482 43.482 513.482 42.814C513.482 42.106 513.614 41.492 513.878 40.972C514.146 40.452 514.518 40.05 514.994 39.766C515.47 39.482 516.024 39.34 516.656 39.34C517.316 39.34 517.878 39.494 518.342 39.802C518.806 40.106 519.152 40.54 519.38 41.104C519.612 41.668 519.704 42.338 519.656 43.114H518.402V42.658C518.394 41.906 518.25 41.35 517.97 40.99C517.694 40.63 517.272 40.45 516.704 40.45C516.076 40.45 515.604 40.648 515.288 41.044C514.972 41.44 514.814 42.012 514.814 42.76C514.814 43.472 514.972 44.024 515.288 44.416C515.604 44.804 516.06 44.998 516.656 44.998C517.048 44.998 517.386 44.91 517.67 44.734C517.958 44.554 518.182 44.298 518.342 43.966L519.572 44.356C519.32 44.936 518.938 45.386 518.426 45.706C517.914 46.022 517.344 46.18 516.716 46.18ZM514.406 43.114V42.136H519.032V43.114H514.406ZM523.88 46.174C523.092 46.174 522.45 46 521.954 45.652C521.458 45.304 521.154 44.814 521.042 44.182L522.326 43.984C522.406 44.32 522.59 44.586 522.878 44.782C523.17 44.974 523.532 45.07 523.964 45.07C524.356 45.07 524.662 44.99 524.882 44.83C525.106 44.67 525.218 44.45 525.218 44.17C525.218 44.006 525.178 43.874 525.098 43.774C525.022 43.67 524.86 43.572 524.612 43.48C524.364 43.388 523.986 43.274 523.478 43.138C522.922 42.994 522.48 42.84 522.152 42.676C521.828 42.508 521.596 42.314 521.456 42.094C521.32 41.87 521.252 41.6 521.252 41.284C521.252 40.892 521.356 40.55 521.564 40.258C521.772 39.966 522.064 39.74 522.44 39.58C522.82 39.42 523.264 39.34 523.772 39.34C524.268 39.34 524.71 39.418 525.098 39.574C525.486 39.73 525.8 39.952 526.04 40.24C526.28 40.524 526.424 40.858 526.472 41.242L525.188 41.476C525.144 41.164 524.998 40.918 524.75 40.738C524.502 40.558 524.18 40.46 523.784 40.444C523.404 40.428 523.096 40.492 522.86 40.636C522.624 40.776 522.506 40.97 522.506 41.218C522.506 41.362 522.55 41.484 522.638 41.584C522.73 41.684 522.906 41.78 523.166 41.872C523.426 41.964 523.81 42.074 524.318 42.202C524.862 42.342 525.294 42.498 525.614 42.67C525.934 42.838 526.162 43.04 526.298 43.276C526.438 43.508 526.508 43.79 526.508 44.122C526.508 44.762 526.274 45.264 525.806 45.628C525.342 45.992 524.7 46.174 523.88 46.174Z" fill="#1A202C"/>
<line x1="67.5" y1="260.5" x2="688.5" y2="260.5" stroke="#F7FAFC" stroke-linecap="round"/>
<line x1="67.5" y1="216.5" x2="688.5" y2="216.5" stroke="#F7FAFC" stroke-linecap="round"/>
<line x1="67.5" y1="174.5" x2="688.5" y2="174.5" stroke="#F7FAFC" stroke-linecap="round"/>
<line x1="67.5" y1="132.5" x2="688.5" y2="132.5" stroke="#F7FAFC" stroke-linecap="round"/>
<line x1="67.5" y1="90.5" x2="688.5" y2="90.5001" stroke="#F7FAFC" stroke-linecap="round"/>
<line x1="85.5" y1="91.5" x2="85.5" y2="259.5" stroke="#F7FAFC" stroke-linecap="round"/>
<line x1="182.5" y1="91.5" x2="182.5" y2="260.5" stroke="#F7FAFC" stroke-linecap="round"/>
<line x1="230.5" y1="91.5" x2="230.5" y2="260.5" stroke="#F7FAFC" stroke-linecap="round"/>
<line x1="279.5" y1="91.5" x2="279.5" y2="260.5" stroke="#F7FAFC" stroke-linecap="round"/>
<line x1="329.5" y1="91.5" x2="329.5" y2="260.5" stroke="#F7FAFC" stroke-linecap="round"/>
<line x1="377.5" y1="91.5" x2="377.5" y2="260.5" stroke="#F7FAFC" stroke-linecap="round"/>
<line x1="426.5" y1="91.5" x2="426.5" y2="260.5" stroke="#F7FAFC" stroke-linecap="round"/>
<line x1="471.5" y1="91.5" x2="471.5" y2="260.5" stroke="#F7FAFC" stroke-linecap="round"/>
<line x1="520.5" y1="91.5" x2="520.5" y2="260.5" stroke="#F7FAFC" stroke-linecap="round"/>
<line x1="573.5" y1="91.5" x2="573.5" y2="260.5" stroke="#F7FAFC" stroke-linecap="round"/>
<line x1="627.5" y1="91.5" x2="627.5" y2="260.5" stroke="#F7FAFC" stroke-linecap="round"/>
<line x1="671.5" y1="91.5" x2="671.5" y2="260.5" stroke="#F7FAFC" stroke-linecap="round"/>
<line x1="130.5" y1="91.5" x2="130.5" y2="260.5" stroke="#F7FAFC" stroke-linecap="round"/>
<path d="M67 146.128C67 146.128 171.5 219.5 182.5 219.5C192.5 219.5 235 177 244.571 172.511C251.5 169.26 273.335 172.083 279 171C284.665 169.917 316.5 138.5 329.5 138.5C336 138.5 369 217.064 377.498 220C388.5 223.8 459.195 165 471.5 165C481.695 166.745 516 195.596 520.458 195.596C528.5 195.596 566 125.354 573.127 127C582.5 129.165 603.5 174 609.745 177.787C615 180.974 629.5 181.708 635.327 183.723C641.155 185.739 681.5 218.5 689 220" stroke="#D8E3F8" stroke-width="2" stroke-linecap="round"/>
<path d="M67 206.155C80.0105 206.155 168.989 181.5 182.5 181.5C194.51 181.5 267.991 226 279.5 226C291.009 224.143 367.992 128.786 377.5 132.5C383.505 134.846 395.264 156.631 400.268 159.107C403.27 160.592 418.282 162.112 426.789 166.535C430.792 168.617 464.5 225.351 471.5 226C482 226.973 514.996 176.238 520.5 175C527.506 173.424 563.992 197.5 573.5 197.5C584.008 197.5 674.989 133.106 689 133.106" stroke="#194BFB" stroke-width="2" stroke-linecap="round"/>
<circle cx="279" cy="170" r="4.25" fill="white" stroke="#1A202C" stroke-width="1.5"/>
<g filter="url(#filter0_d_1074_10752)">
<path fill-rule="evenodd" clip-rule="evenodd" d="M253 125C249.686 125 247 127.686 247 131V147C247 150.314 249.686 153 253 153H270.417L277.797 160.304C278.186 160.689 278.814 160.689 279.203 160.304L286.583 153H305C308.314 153 311 150.314 311 147V131C311 127.686 308.314 125 305 125H253Z" fill="#1A202C"/>
</g>
<path d="M261.473 145.194V143.79H262.727V145.194H261.473ZM261.473 135.576V134.166H262.727V135.576H261.473ZM262.163 144.18C261.563 144.18 261.027 144.072 260.555 143.856C260.083 143.64 259.695 143.334 259.391 142.938C259.091 142.538 258.895 142.066 258.803 141.522L260.045 141.324C260.165 141.836 260.421 142.244 260.813 142.548C261.205 142.848 261.675 142.998 262.223 142.998C262.767 142.998 263.209 142.868 263.549 142.608C263.893 142.348 264.065 142.016 264.065 141.612C264.065 141.324 263.977 141.09 263.801 140.91C263.629 140.73 263.347 140.578 262.955 140.454L260.927 139.83C259.727 139.458 259.127 138.738 259.127 137.67C259.127 137.166 259.247 136.728 259.487 136.356C259.731 135.984 260.073 135.696 260.513 135.492C260.953 135.288 261.467 135.186 262.055 135.186C262.619 135.194 263.119 135.298 263.555 135.498C263.995 135.698 264.359 135.986 264.647 136.362C264.939 136.738 265.141 137.19 265.253 137.718L263.975 137.946C263.919 137.638 263.801 137.366 263.621 137.13C263.445 136.894 263.221 136.71 262.949 136.578C262.681 136.446 262.379 136.378 262.043 136.374C261.727 136.366 261.443 136.416 261.191 136.524C260.943 136.628 260.745 136.776 260.597 136.968C260.453 137.156 260.381 137.37 260.381 137.61C260.381 137.874 260.483 138.098 260.687 138.282C260.891 138.466 261.213 138.624 261.653 138.756L263.243 139.218C263.971 139.434 264.497 139.724 264.821 140.088C265.145 140.452 265.307 140.936 265.307 141.54C265.307 142.068 265.175 142.53 264.911 142.926C264.651 143.318 264.285 143.626 263.813 143.85C263.341 144.07 262.791 144.18 262.163 144.18ZM269.55 144.18C269.106 144.18 268.692 144.09 268.308 143.91C267.928 143.726 267.602 143.474 267.33 143.154C267.058 142.83 266.864 142.458 266.748 142.038L267.954 141.714C268.022 141.97 268.138 142.192 268.302 142.38C268.47 142.568 268.666 142.714 268.89 142.818C269.114 142.918 269.346 142.968 269.586 142.968C269.902 142.968 270.188 142.892 270.444 142.74C270.704 142.588 270.908 142.384 271.056 142.128C271.208 141.872 271.284 141.59 271.284 141.282C271.284 140.966 271.206 140.68 271.05 140.424C270.898 140.168 270.692 139.966 270.432 139.818C270.176 139.666 269.894 139.59 269.586 139.59C269.234 139.59 268.936 139.66 268.692 139.8C268.448 139.94 268.258 140.102 268.122 140.286L267.03 139.902L267.294 135.36H271.956V136.542H267.936L268.446 136.068L268.236 139.47L267.99 139.152C268.218 138.924 268.49 138.75 268.806 138.63C269.122 138.51 269.436 138.45 269.748 138.45C270.284 138.45 270.762 138.574 271.182 138.822C271.606 139.07 271.94 139.408 272.184 139.836C272.428 140.26 272.55 140.742 272.55 141.282C272.55 141.818 272.412 142.306 272.136 142.746C271.86 143.182 271.494 143.53 271.038 143.79C270.582 144.05 270.086 144.18 269.55 144.18ZM274.264 145.434L274.342 144.876C274.514 144.888 274.648 144.856 274.744 144.78C274.84 144.704 274.904 144.598 274.936 144.462C274.968 144.326 274.974 144.172 274.954 144H274.264V142.554H275.59V144.12C275.59 144.592 275.476 144.948 275.248 145.188C275.024 145.428 274.696 145.51 274.264 145.434ZM281.277 144.18C280.689 144.18 280.169 144.052 279.717 143.796C279.265 143.536 278.909 143.18 278.649 142.728C278.393 142.276 278.265 141.756 278.265 141.168V138.192C278.265 137.604 278.393 137.084 278.649 136.632C278.909 136.18 279.265 135.826 279.717 135.57C280.169 135.31 280.689 135.18 281.277 135.18C281.865 135.18 282.385 135.31 282.837 135.57C283.289 135.826 283.643 136.18 283.899 136.632C284.159 137.084 284.289 137.604 284.289 138.192V141.168C284.289 141.756 284.159 142.276 283.899 142.728C283.643 143.18 283.289 143.536 282.837 143.796C282.385 144.052 281.865 144.18 281.277 144.18ZM281.277 142.98C281.597 142.98 281.887 142.904 282.147 142.752C282.411 142.596 282.621 142.388 282.777 142.128C282.933 141.864 283.011 141.57 283.011 141.246V138.102C283.011 137.782 282.933 137.492 282.777 137.232C282.621 136.968 282.411 136.76 282.147 136.608C281.887 136.452 281.597 136.374 281.277 136.374C280.957 136.374 280.665 136.452 280.401 136.608C280.141 136.76 279.933 136.968 279.777 137.232C279.621 137.492 279.543 137.782 279.543 138.102V141.246C279.543 141.57 279.621 141.864 279.777 142.128C279.933 142.388 280.141 142.596 280.401 142.752C280.665 142.904 280.957 142.98 281.277 142.98ZM288.926 144.18C288.482 144.18 288.068 144.09 287.684 143.91C287.304 143.726 286.978 143.474 286.706 143.154C286.434 142.83 286.24 142.458 286.124 142.038L287.33 141.714C287.398 141.97 287.514 142.192 287.678 142.38C287.846 142.568 288.042 142.714 288.266 142.818C288.49 142.918 288.722 142.968 288.962 142.968C289.278 142.968 289.564 142.892 289.82 142.74C290.08 142.588 290.284 142.384 290.432 142.128C290.584 141.872 290.66 141.59 290.66 141.282C290.66 140.966 290.582 140.68 290.426 140.424C290.274 140.168 290.068 139.966 289.808 139.818C289.552 139.666 289.27 139.59 288.962 139.59C288.61 139.59 288.312 139.66 288.068 139.8C287.824 139.94 287.634 140.102 287.498 140.286L286.406 139.902L286.67 135.36H291.332V136.542H287.312L287.822 136.068L287.612 139.47L287.366 139.152C287.594 138.924 287.866 138.75 288.182 138.63C288.498 138.51 288.812 138.45 289.124 138.45C289.66 138.45 290.138 138.574 290.558 138.822C290.982 139.07 291.316 139.408 291.56 139.836C291.804 140.26 291.926 140.742 291.926 141.282C291.926 141.818 291.788 142.306 291.512 142.746C291.236 143.182 290.87 143.53 290.414 143.79C289.958 144.05 289.462 144.18 288.926 144.18ZM293.192 143.994L293.198 142.878L296.96 139.506C297.264 139.238 297.47 138.982 297.578 138.738C297.69 138.494 297.746 138.25 297.746 138.006C297.746 137.698 297.678 137.422 297.542 137.178C297.406 136.93 297.218 136.734 296.978 136.59C296.738 136.446 296.462 136.374 296.15 136.374C295.83 136.374 295.544 136.45 295.292 136.602C295.044 136.75 294.85 136.948 294.71 137.196C294.57 137.444 294.502 137.712 294.506 138H293.222C293.222 137.44 293.348 136.95 293.6 136.53C293.856 136.106 294.206 135.776 294.65 135.54C295.094 135.3 295.602 135.18 296.174 135.18C296.718 135.18 297.206 135.304 297.638 135.552C298.07 135.796 298.41 136.132 298.658 136.56C298.91 136.988 299.036 137.476 299.036 138.024C299.036 138.42 298.984 138.756 298.88 139.032C298.776 139.308 298.62 139.564 298.412 139.8C298.204 140.036 297.944 140.292 297.632 140.568L294.728 143.16L294.59 142.8H299.036V143.994H293.192Z" fill="white"/>
<defs>
<filter id="filter0_d_1074_10752" x="235" y="113" width="96" height="67.593" filterUnits="userSpaceOnUse" color-interpolation-filters="sRGB">
<feFlood flood-opacity="0" result="BackgroundImageFix"/>
<feColorMatrix in="SourceAlpha" type="matrix" values="0 0 0 0 0 0 0 0 0 0 0 0 0 0 0 0 0 0 127 0" result="hardAlpha"/>
<feOffset dx="4" dy="4"/>
<feGaussianBlur stdDeviation="8"/>
<feComposite in2="hardAlpha" operator="out"/>
<feColorMatrix type="matrix" values="0 0 0 0 0.101961 0 0 0 0 0.12549 0 0 0 0 0.172549 0 0 0 0.08 0"/>
<feBlend mode="normal" in2="BackgroundImageFix" result="effect1_dropShadow_1074_10752"/>
<feBlend mode="normal" in="SourceGraphic" in2="effect1_dropShadow_1074_10752" result="shape"/>
</filter>
</defs>
</svg>
