<svg width="22" height="24" viewBox="0 0 22 24" fill="none" xmlns="http://www.w3.org/2000/svg">
<g id="Group">
<path id="Vector" d="M8.6665 3.83333C8.6665 3.21449 8.91234 2.621 9.34992 2.18342C9.78751 1.74583 10.381 1.5 10.9998 1.5C11.6187 1.5 12.2122 1.74583 12.6498 2.18342C13.0873 2.621 13.3332 3.21449 13.3332 3.83333C14.673 4.46687 15.8151 5.45305 16.6372 6.68618C17.4593 7.91932 17.9303 9.35292 17.9998 10.8333V14.3333C18.0876 15.0587 18.3445 15.7532 18.7498 16.3611C19.1551 16.9691 19.6974 17.4733 20.3332 17.8333H1.6665C2.30227 17.4733 2.84461 16.9691 3.24989 16.3611C3.65516 15.7532 3.91204 15.0587 3.99984 14.3333V10.8333C4.06932 9.35292 4.54035 7.91932 5.36244 6.68618C6.18453 5.45305 7.32669 4.46687 8.6665 3.83333" stroke="#1A202C" stroke-width="1.5" stroke-linecap="round" stroke-linejoin="round"/>
<path id="Vector_2" d="M7.5 17.8333V19C7.5 19.9282 7.86875 20.8185 8.52513 21.4749C9.1815 22.1312 10.0717 22.5 11 22.5C11.9283 22.5 12.8185 22.1312 13.4749 21.4749C14.1313 20.8185 14.5 19.9282 14.5 19V17.8333" stroke="#1A202C" stroke-width="1.5" stroke-linecap="round" stroke-linejoin="round"/>
</g>
</svg>
