<svg width="28" height="10" viewBox="0 0 28 10" fill="none" xmlns="http://www.w3.org/2000/svg">
<g id="Payoneer Logo" clip-path="url(#clip0_1074_11513)">
<g id="layer1">
<g id="g3187">
<g id="g2666">
<path id="path2668" d="M7.15872 0.871147C7.19299 1.65911 7.86432 4.66601 7.86432 4.66601C8.111 5.27503 8.32341 4.66601 8.32341 4.66601C9.13559 2.19575 7.47583 0.764198 7.47583 0.764198C7.05214 0.513069 7.15872 0.871147 7.15872 0.871147ZM16.7957 0.441833C16.7957 0.441833 17.6082 1.01457 16.7957 1.1219C16.7957 1.1219 13.7595 1.47978 11.5004 3.62844C11.5004 3.62844 8.111 6.63477 6.84048 9.92871C6.84048 9.92871 6.41678 9.92871 6.55857 9.28455C6.69962 8.6402 7.54645 5.81167 11.3234 2.33955C11.3234 2.33955 14.9606 -1.026 16.7957 0.441833Z" fill="#FF4600"/>
</g>
<g id="g2670">
<path id="path2672" d="M1.34983 5.20829C1.48395 5.23698 1.60439 5.25104 1.78121 5.25104C2.4737 5.25104 2.94029 4.79931 2.94029 4.22562C2.94029 3.7095 2.5799 3.52333 2.11368 3.52333C1.90821 3.52333 1.75274 3.53777 1.65384 3.56608L1.34983 5.20829ZM0.960975 2.97112C1.25093 2.89912 1.68231 2.85638 2.10638 2.85638C2.55199 2.85638 3.01858 2.94927 3.32952 3.20059C3.60524 3.41563 3.76783 3.73058 3.76783 4.16142C3.76783 4.73472 3.49903 5.20127 3.15963 5.47348C2.77808 5.78179 2.23319 5.93243 1.6677 5.93243C1.49781 5.93243 1.34983 5.91058 1.22246 5.89653L0.875936 7.7251H0.0703125L0.960975 2.97112Z" fill="black"/>
</g>
<g id="g2674">
<path id="path2676" d="M5.95186 4.83499C5.86719 4.81314 5.76136 4.79928 5.61283 4.79928C4.85628 4.79928 4.26232 5.66721 4.26232 6.46315C4.26232 6.82826 4.39662 7.12973 4.75738 7.12973C5.14586 7.12973 5.61283 6.64247 5.77541 5.75307L5.95186 4.83499ZM5.61976 7.72507C5.61976 7.51668 5.64785 7.23743 5.67651 6.94299H5.66228C5.32306 7.58165 4.86321 7.80371 4.4249 7.80371C3.80996 7.80371 3.40649 7.31608 3.40649 6.6136C3.40649 5.4233 4.22673 4.15398 5.83179 4.15398C6.20641 4.15398 6.60951 4.22559 6.8783 4.31164L6.51772 6.133C6.41845 6.64912 6.36207 7.30905 6.3763 7.72507H5.61976Z" fill="black"/>
</g>
<g id="g2678">
<path id="path2680" d="M11.5576 6.34071C11.5576 6.82055 11.8051 7.15849 12.2293 7.15849C12.8444 7.15849 13.2547 6.29759 13.2547 5.60214C13.2547 5.2433 13.0917 4.79879 12.5972 4.79879C11.9395 4.79879 11.5576 5.68819 11.5576 6.34071ZM14.103 5.5953C14.103 6.78522 13.2897 7.80322 12.1164 7.80322C11.2463 7.80322 10.7095 7.19383 10.7095 6.36179C10.7095 5.17909 11.5224 4.15368 12.6961 4.15368C13.6222 4.15368 14.103 4.82766 14.103 5.5953Z" fill="black"/>
</g>
<g id="g2682">
<path id="path2684" d="M14.2578 7.7251L14.7034 5.31562C14.7881 4.89961 14.8375 4.53393 14.8801 4.23303H15.6158L15.5379 4.85687H15.5518C15.8696 4.39051 16.3083 4.15401 16.7891 4.15401C17.2838 4.15401 17.6657 4.45548 17.6657 5.11502C17.6657 5.2725 17.638 5.51622 17.6024 5.68852L17.2271 7.7251H16.3999L16.7672 5.7531C16.7891 5.62412 16.8101 5.47348 16.8101 5.33709C16.8101 5.04303 16.7041 4.83502 16.3789 4.83502C16.0043 4.83502 15.5233 5.29378 15.3749 6.11175L15.078 7.7251H14.2578Z" fill="black"/>
</g>
<g id="g2686">
<path id="path2688" d="M19.8568 4.77781C19.3404 4.77781 19.0013 5.24379 18.9024 5.66721C19.7506 5.67424 20.2955 5.5595 20.2955 5.13665C20.2955 4.91439 20.1186 4.77781 19.8568 4.77781ZM20.6416 7.52409C20.302 7.70322 19.8429 7.80371 19.4254 7.80371C18.4718 7.80371 18.012 7.20894 18.012 6.35544C18.012 5.30135 18.7751 4.15417 19.963 4.15417C20.6416 4.15417 21.073 4.54834 21.073 5.13665C21.073 6.0327 20.1471 6.31935 18.818 6.29086C18.8035 6.41262 18.8318 6.64912 18.9097 6.78552C19.0442 7.0224 19.2909 7.14416 19.6167 7.14416C20.0059 7.14416 20.3164 7.04367 20.5646 6.91469L20.6416 7.52409Z" fill="black"/>
</g>
<g id="g2690">
<path id="path2692" d="M23.0589 4.77781C22.5431 4.77781 22.2035 5.24379 22.1046 5.66721C22.9527 5.67424 23.4976 5.5595 23.4976 5.13665C23.4976 4.91439 23.3208 4.77781 23.0589 4.77781ZM23.8438 7.52409C23.5047 7.70322 23.0451 7.80371 22.6283 7.80371C21.674 7.80371 21.2141 7.20894 21.2141 6.35544C21.2141 5.30135 21.9772 4.15417 23.1651 4.15417C23.8438 4.15417 24.2759 4.54834 24.2759 5.13665C24.2759 6.0327 23.3493 6.31935 22.0201 6.29086C22.0055 6.41262 22.034 6.64912 22.1119 6.78552C22.2464 7.0224 22.4936 7.14416 22.8188 7.14416C23.208 7.14416 23.5186 7.04367 23.7668 6.91469L23.8438 7.52409Z" fill="black"/>
</g>
<g id="g2694">
<path id="path2696" d="M24.3247 7.7251L24.7276 5.57378C24.8194 5.07912 24.8688 4.54134 24.9037 4.23303H25.6181C25.5969 4.46953 25.5759 4.71325 25.5404 4.96457H25.5613C25.7957 4.49822 26.1695 4.15401 26.6365 4.15401C26.7006 4.15401 26.7639 4.16142 26.8206 4.16142L26.6577 4.97882C26.6153 4.97141 26.5588 4.97141 26.502 4.97141C25.9148 4.97141 25.5404 5.57378 25.4064 6.31938L25.1446 7.7251H24.3247Z" fill="black"/>
</g>
<g id="g2698">
<path id="path2700" d="M27.446 4.55223H27.5063C27.5681 4.55223 27.6089 4.51728 27.6089 4.46447C27.6089 4.40501 27.566 4.37899 27.5042 4.37899C27.4757 4.37899 27.4555 4.38108 27.446 4.38336V4.55223ZM27.387 4.34156C27.4169 4.33606 27.4598 4.33207 27.4997 4.33207C27.5623 4.33207 27.6039 4.34498 27.6314 4.37006C27.6541 4.39038 27.6672 4.42211 27.6672 4.45858C27.6672 4.51861 27.6299 4.55926 27.582 4.57541V4.57769C27.6168 4.58984 27.6372 4.62309 27.6488 4.67096C27.6634 4.73478 27.6743 4.77981 27.6839 4.79785H27.6228C27.6155 4.78379 27.6052 4.74485 27.5936 4.68729C27.5797 4.62347 27.5544 4.59991 27.5012 4.59763H27.446V4.79785H27.387V4.34156Z" fill="black"/>
</g>
<g id="g2702">
<path id="path2704" d="M27.5224 4.15395C27.2976 4.15395 27.115 4.33916 27.115 4.56711C27.115 4.79507 27.2976 4.98047 27.5224 4.98047C27.7472 4.98047 27.9298 4.79507 27.9298 4.56711C27.9298 4.33916 27.7472 4.15395 27.5224 4.15395ZM27.5224 4.21777C27.7123 4.21777 27.8665 4.37373 27.8665 4.56711C27.8665 4.7603 27.7123 4.91683 27.5224 4.91683C27.3319 4.91683 27.1776 4.7603 27.1776 4.56711C27.1776 4.37373 27.3319 4.21777 27.5224 4.21777Z" fill="black"/>
</g>
</g>
</g>
</g>
<defs>
<clipPath id="clip0_1074_11513">
<rect width="28" height="10" fill="white"/>
</clipPath>
</defs>
</svg>
