<svg width="24" height="24" viewBox="0 0 24 24" fill="none" xmlns="http://www.w3.org/2000/svg">
<g id="stripe">
<path id="Vector" d="M13.4791 9.88303C11.8531 9.27903 10.9671 8.81603 10.9671 8.08003C10.9671 7.45803 11.4781 7.10303 12.3901 7.10303C14.0571 7.10303 15.7691 7.74503 16.9481 8.32303L17.6141 4.21203C16.6791 3.76603 14.7671 3.03503 12.1241 3.03503C10.2541 3.03503 8.69909 3.52403 7.58809 4.43603C6.43309 5.39003 5.83109 6.77003 5.83109 8.43603C5.83109 11.459 7.67809 12.748 10.6781 13.839C12.6141 14.527 13.2571 15.017 13.2571 15.773C13.2571 16.505 12.6281 16.928 11.4951 16.928C10.0921 16.928 7.77909 16.239 6.26409 15.35L5.59009 19.507C6.89409 20.239 9.29509 20.995 11.7871 20.995C13.7631 20.995 15.4111 20.528 16.5221 19.639C17.7671 18.662 18.4121 17.217 18.4121 15.35C18.4121 12.259 16.5231 10.97 13.4771 9.88203H13.4791V9.88303Z" fill="#936DFF"/>
</g>
</svg>
